<svg id="Layer_1" data-name="Layer 1" xmlns="http://www.w3.org/2000/svg" viewBox="0 0 1000 1000"><defs><style>.cls-1,.cls-2{fill:#b19455;}.cls-1{stroke:#b19455;stroke-miterlimit:10;stroke-width:8px;}.cls-3{fill:#1c1c1c;}.cls-4{fill:#f4b840;}</style></defs><path class="cls-1" d="M519.8534,311.8479c25.121-.4391,50.27-.2691,75.3579-1.4329,71.4108-3.3129,137.0995,35.4031,153.0176,108.8964,8.17,37.7189,27.0905,72.5234,49.1641,104.8132,12.2272,17.886,31.1978,25.3519,50.7429,30.8676,12.4643,3.5174,11.8239,8.2143,5.0683,16.8312-27.2554,34.7654-58.5066,37.3659-98.7857,5.0355,7.0622,26.3753,18.9357,48.7006,16.1977,73.6861-.245,10.3665-.4137,20.7366-.7539,31.1011-.446,13.5887-6.8424,21.3966-21.1572,21.3415-7.6567-.03-15.3652.5631-22.9565-.1382-8.5739-.7921-16.1485-4.6242-18.3208-13.66-2.2542-9.3764,1.731-17.2324,9.5106-22.6678,17.0359-11.9024,17.9858-23.4685,8.3979-41.63-22.952-43.475-63.4011-69.1693-97.93-101.1423-22.6867-21.0078-40.7075-27.1474-72.4275-11.8769-51.092,24.5968-108.43,27.0307-165.19,22.7154a111.8746,111.8746,0,0,1-13.0275-1.4563c-9.9237-1.9449-13.43,1.958-14.0149,11.9617-1.0017,17.138,5.7806,33.6525,1.5357,51.2309-6.5718,27.2144-4.22,55.925-13.8164,82.9474-4.01,11.291-10.1144,15.9993-21.1685,15.9777-13.1259-.0257-26.2547-.0532-39.3763-.3475-11.0925-.2487-19.477-4.2744-19.2029-17.0624.2549-11.8885,7.3837-18.6638,18.757-17.2525,18.5571,2.3027,18.18-7.131,16.7466-20.9854-4.212-40.7012-13.4407-80.3466-23.2939-119.8949-2.0678-8.3-4.7682-16.0088-13.7029-20.7682-18.2805-9.7378-31.4545-25.1059-41.2653-43.0857-30.5441-55.9768-45.3153-114.87-37.5417-179.3887,4.7432-39.3672,7.2662-29.1029-27.9466-41.9256-9.6492-3.5138-20.5012-3.457-29.141-10.0026-5.4385-4.12-10.8618-8.88-8.4673-16.1442,2.3381-7.0931,9.0892-8.7488,16.2007-8.21,5.8264.4411,11.7762,2.1029,17.4273-1.0017-.4821-7.5152-7.0917-8.1448-11.1979-11.0911-8.0774-5.7959-15.7254-11.72-18.8559-21.7617-7.0468-22.603,6.0346-37.8862,29.1164-33.7165a94.8939,94.8939,0,0,1,17.313,4.5245c12.5957,4.8686,23.6127,6.0661,37.1518-.7725,24.9682-12.6114,51.8419-3.7327,71.0789,21.5971,25.3621,33.395,36.4774,74.1136,58.4663,109.3954,15.4035,24.7155,35.5612,37.7967,62.692,41.124C442.6077,313.1824,481.2759,312.1052,519.8534,311.8479Zm-23.0781,9.8136c-35.7665-3.48-72.0363-.1662-107.4814-8.0755-22.9777-5.1274-40.7261-16.8345-51.8563-38.2641-10.5577-20.3271-22.406-39.9861-32.918-60.3353-4.1059-7.9482-7.145-9.37-15.8993-5.2875-14.8185,6.91-27.5283,17.0709-41.9792,24.3889-6.096,3.087-12.2559,5.9-18.2721,1.0246-5.975-4.8416-5.08-11.7711-3.1247-18.1984,5.7153-18.7858,11.5147-37.5512,17.6631-56.199,7.5289-22.8346,6.807-23.89-17.6932-21.7005-2.7106.2423-6.1517-.081-7.9657,1.4161-20.172,16.6475-39.45,4.2974-58.2435-2.36-15.2618-5.4063-26.4326.8793-27.1274,17.2728-.7723,18.221,12.8925,25.031,25.2541,32.795,9.5731,6.0128,21.8,7.8656,30.9811,19.2262-17.1056,1.3738-31.5458-1.1976-46.0519-2.7477-4.777-.5105-10.8445-1.4609-12.3575,4.7922-1.3572,5.6094,3.3114,9.1374,7.8863,11.1133a139.37,139.37,0,0,0,18.5668,6.2587c45.1141,12.317,45.3173,12.2974,40.2126,58.193-7.3916,66.4568,11.6788,126.0352,47.3466,181.0766,6.71,10.354,14.9009,20.7318,30.2613,23.3719-.4735-6.1276-.4452-11.0176-1.2862-15.7536a327.1815,327.1815,0,0,1-5.2174-70.0529c.5981-15.376,2.9015-30.5474,12.7837-43.267,4.1753-5.3741,8.5654-11.1976,16.4546-4.03-15.7278,12.5747-17.89,16.3214-20.4318,35.76-4.219,32.2624.4783,63.9787,7.0563,95.3643,10.2837,49.0671,26.0985,97.0079,30.0692,147.3445.7257,9.2,6.6369,19.3788,2.0877,27.2143-5.8265,10.0354-18.0406,2.5587-27.1778,4.6941-1.5845.37-3.3954.153-4.8025.8289a10.0781,10.0781,0,0,0-5.3974,9.2c.0015,3.4186,1.6466,8.6054,5.5134,8.875,17.9318,1.25,35.9862,2.3082,53.7785-.9527,2.6174-.48,5.648-5.5067,6.2984-8.8542,6.8368-35.192,15.4871-70.89,13.3337-106.3733-2.128-35.0655,1.756-69.4721,2.0818-104.1764.0291-3.107,1.7025-5.0066,5.8385-4.8385,3.3452,11.4469,2.4,22.6536-.8911,34.3892-5.3414,19.05.96,30.2378,15.8746,30.4624,38.1763.5749,76.2981.3321,114.0964-6.3307,26.8715-4.7368,52.9845-11.8869,77.9157-23.0456,8.7549-3.9186,14.47-8.154,7.2386-19.3722-8.2921-12.8646-12.1917-27.8613-14.6169-43.0509-1.9076-13.744-1.3287-27.2807,4.6924-40.001,1.6592-3.5053,3.198-10.1719,8.56-7.6266,5.9216,2.8107.4459,7.2526-.9532,10.9265-11.1615,29.3089,2.99,82.1919,28.8421,99.8671,32.2637,22.0592,59.2093,50.392,90.4834,73.5285,14.6068,10.8061,17.8841,29.6163,28.9623,42.8851,9.4873,11.3631,17.452,22.8331,11.4164,38.2415-3.1123,7.9453,5.7681,10.38,6.9739,16.0315-5.902,3.4894-11.521,1.8759-16.8487,2.408-8.0805.807-11.5138,5.9049-11.8742,13.134-.4082,8.19,5.4736,9.7221,12.07,9.7908,7.6542.08,15.3125.2205,22.963.0545,7.7416-.168,12.7669-4.1849,12.5829-12.0521-.62-26.5015,3.7659-53.1757-7.54-79.103-9.9948-22.9209-16.7771-46.7949-14.4874-72.8745,2.4313-27.6918,2.625-55.62,2.8882-83.4532.5806-61.3958-38.78-110.6714-99.5832-121.9451C595.0806,314.25,545.7876,321.0779,496.7753,321.6615Zm259.2883,137.632c-7.95,24.7837-5.7294,49.6989-6.74,74.3777-1.0676,26.08,12.4975,46.0314,36.4752,55.9258,18.1755,7.5,40.4437.6339,58.0964-16.9611,8.4789-8.4513,8.3143-12.4263-4.0786-15.6354-26.2858-6.8065-45.0325-23.3662-57.4458-47.3325C773.6588,492.8471,764.8367,476.083,756.0636,459.2935ZM296.6079,188.1675c-.3757-.88-.6865-2.6226-1.6806-3.7791-9.9213-11.5426-20.31-22.6114-32.3527-32.0442-5.6128-4.3964-9.2877-2.0594-11.1252,3.3916-7.105,21.0784-14.1477,42.1907-20.5028,63.5019-2.4593,8.247.6623,13.88,9.9983,8.6426,16.9272-9.4967,33.395-19.8153,49.9758-29.92C294.2045,195.9593,297.0476,193.3239,296.6079,188.1675Z"/><path class="cls-2" d="M756.0636,459.2935c8.7731,16.79,17.5952,33.5536,26.3075,50.3745,12.4133,23.9663,31.16,40.526,57.4458,47.3325,12.3929,3.2091,12.5575,7.1841,4.0786,15.6354-17.6527,17.595-39.9209,24.4613-58.0964,16.9611-23.9777-9.8944-37.5428-29.8458-36.4752-55.9258C750.3342,508.9924,748.1134,484.0772,756.0636,459.2935Z"/><path class="cls-3" d="M296.6079,188.1675c.44,5.1564-2.4034,7.7918-5.6872,9.793-16.5808,10.1045-33.0486,20.4231-49.9758,29.92-9.336,5.2378-12.4576-.3956-9.9983-8.6426,6.3551-21.3112,13.3978-42.4235,20.5028-63.5019,1.8375-5.451,5.5124-7.788,11.1252-3.3916,12.0428,9.4328,22.4314,20.5016,32.3527,32.0442C295.9214,185.5449,296.2322,187.2877,296.6079,188.1675Z"/><path class="cls-4" d="M550.55,804.9346c-9.3517-5.8732-39.8368-6.1724-41.333-17.7156.214-4.5194,4.5678-6.4254,7.2353-6.6727,7.6158-.7059,7.8967-5.1832,7.3778-9.7865-.0464-9.5989-1.0232-10.4691-9.375-9.3414-11.1961,1.5118-21.2049,11.1595-23.4311,22.5854-6.0036,37.8288,55.4113,27.5765,57.6415,44.4971.8412,7.6413-6.6926,8.022-12.11,9.689-9.9929,2.7956-7.8583,20.8294,3.1913,18.67C569.61,855.0529,580.4157,815.9864,550.55,804.9346Z"/><path class="cls-4" d="M463.2925,760.3069c-6.6731.0188-13.4229-.6334-20.0057.14-25.1109,2.9509-21.1246-4.2037-21.5554,21.4335.62,21.5016.0993,43.0568-.2091,64.57-.1647,7.2327,2.0974,10.3539,9.8954,10.3357,15.2112.919,8.2152-16.2922,10.0647-25.7017-.1149-9.6842-.5238-19.3767-.2474-29.05.2042-7.1436-3.2072-16.0706,1.632-20.9348,6.21-6.8175,29.3072,6.8087,27.9331-9.4582C470.596,766.1056,471.6135,760.2835,463.2925,760.3069Z"/><path class="cls-4" d="M762.5992,808.4539c-.725-30.916,26.7886-22.8144,24.5976-38.1791,2.9292-23.4451-47.427,3.9376-42.93,40.1162.9035,20.733,12.3931,37.055,30.6672,43.0835,3.723,1.2281,8.38,4.0763,11.3413-.8478C793.4631,831.0607,761.69,841.0213,762.5992,808.4539Z"/><path class="cls-4" d="M839.27,808.4921c.0917-19.9377-12.9958-39.0575-31.0669-44.9439-3.97-1.2933-9.679-4.6885-11.324,2.0241-6.8325,22.0452,25.2282,8.6449,24.98,42.8512.5294,30.5176-27.4654,23.6063-25.4307,37.7915C795.1068,871.3737,842.3311,838.7021,839.27,808.4921Z"/><path class="cls-4" d="M652.9343,808.5831c-1.0161-28.9459,23.205-22.69,22.21-37.1073-.0114-9.7889-2.2181-11.3438-11.1928-8.5224-17.4968,5.5-29.0652,22.2205-30.1465,43.5717-1.1643,22.9887,12.3527,43.36,32.0146,48.6646,4.0326,1.0879,7.8545,1.4725,8.75-3.2068C680.4325,829.3339,652.222,840.9985,652.9343,808.5831Z"/><path class="cls-4" d="M719.89,822.2521c-5.985-.777-12.5436-3.0208-17.0528,4.3492-5.4245,13.1594-22.1924,7.924-20.3631,18.9333-2.1063,27.496,38.3936-3.7641,39.7449-15.9353C723.125,826.5853,724.0806,822.7961,719.89,822.2521Z"/><path class="cls-4" d="M688.7706,779.8016c11.2957.8406,13.2183,17.54,23.9325,16.19,10.8118.0552,12.4909-2.7831,7.8126-12.0664-5.6609-11.2335-15.0925-17.8363-26.8015-21.425-3.83-1.174-9.2846-3.7846-10.5512,2.46C682.0677,770.3587,679.7846,777.682,688.7706,779.8016Z"/><path class="cls-4" d="M516.6276,836.3279c-14.7636-2.8138-2.959-16.7218-17.7828-15.1-10.425.082-11.9468,2.4081-9.65,11.7056,2.55,10.3223,10.0232,16.9338,18.5661,21.0233,3.7857,1.8123,11.4717,7.0217,15.9142-.9427C527.8073,845.6055,524.8265,838.6861,516.6276,836.3279Z"/><path class="cls-4" d="M537.2661,780.6489c9.4852,1.4595,7.98,16.9482,18.5389,14.119,9.5413-.0548,12.1662-3.267,9.6335-11.8516-3.1668-10.7334-10.8433-17.1147-21.4093-20.1392-4.6762-1.3385-10.4446-4.6975-12.6612,2.8088C529.6014,771.5683,528.7047,778,537.2661,780.6489Z"/><path class="cls-4" d="M600.7282,832.4024c-7.8148.3943-13.666.8878-11.5712,9.8021-.0312,11.4234,2.5193,14.5313,11.0685,14.5837,8.6613.0533,10.8489-2.7963,11.4-12.39C612.0946,836.22,610.2985,831.92,600.7282,832.4024Z"/><path class="cls-4" d="M393.5676,761.3646c-7.5506,17.0778,1.6093,18.8423,16.5259,18.5783,6.25-4.0622,4.2765-10.42,3.2252-15.549C411.4508,757.2465,399.072,761.4424,393.5676,761.3646Z"/><path class="cls-4" d="M228.2979,761.797v.357c-8.7717,1.96-28.4736-5.8519-28.1248,8.1919.0289,7.2726,4.2238,7.4792,9.5148,7.6644,14.1809,2.2521,43.8321-6.52,48.4369,11.873,1.9635,9.7613-3.5183,16.6245-14.8066,17.3085-10.9336.6627-21.9354.7077-32.8878.3783-7.3066-.22-10.6773,1.9588-10.2152,9.8146a261.085,261.085,0,0,1,.0226,27.3648c-.3236,6.9813,2.0092,9.7267,9.3307,9.8,19.0913.52-2.653-31.3775,15.7651-30.7909,24.2215,2.4465,52.0854-1.4309,51.2059-32.6034C275.363,764.1261,248.8053,759.6971,228.2979,761.797Z"/><path class="cls-4" d="M364.7955,760.512c-9.1312.2142-18.2712.0535-27.4075.0535v.2963c-9.1362,0-18.2754.1473-27.4073-.0514-6.1487-.1338-8.759,2.2729-8.6277,8.64.1216,5.8933.836,10.1315,8.2188,10.0845q27.8639-.1775,55.73.2031c7.1747.0914,8.3531-3.7686,8.4748-9.8808C373.9092,763.1926,371.4665,760.3555,364.7955,760.512Z"/><path class="cls-4" d="M365.1711,837.2407c-9.1187.1641-18.2425.045-27.3642.045v.3034c-9.4256,0-18.8707.3753-28.271-.11-8.6135-.445-8.0279,4.9164-8.0835,10.655-.0635,6.5522,2.5244,9.5939,9.2712,8.33,18.3609-1.32,36.93.2224,55.3744-.8392,7.2519-.1491,7.594-5.0448,7.6361-10.7635C373.7807,838.5386,370.5706,837.1435,365.1711,837.2407Z"/><path class="cls-4" d="M308.6265,817.216c8.2161-.284,16.45-.0644,24.6755-.0644v.3016c8.5306,0,17.0739-.2873,25.5881.0872,7.3593.3237,9.4181-2.9964,9.387-9.8779-.0314-6.9736-3.0713-8.9977-9.4937-8.7814-16.7266.5635-33.4644,1.0642-50.1968,1.0375-5.8563-.0093-7.4012,2.2814-7.1633,7.5227C301.651,812.4559,301.0468,817.4779,308.6265,817.216Z"/></svg>