<svg id="Layer_1" data-name="Layer 1" xmlns="http://www.w3.org/2000/svg" viewBox="0 0 1000 1000"><defs><style>.cls-1{fill:#010101;}.cls-2{fill:#fff;}</style></defs><path class="cls-1" d="M0,892.23V0H460.82c-20.79,4.32-42,7.35-62.3,13.15-101.47,29-174.64,86-197.24,186.66-7,31-2.71,64.33-2.55,96.58.06,13.6-3,23.42-14.59,33.6-9.53,8.38-16.76,23.11-17.51,35.42-2.67,44,15,83.31,43.51,117,9,10.6,28.85,18.93,43.28,18.24,18.13-.9,23.5,5,30,18,24.26,49.07,54.32,94.56,99.16,130.27,62,49.48,150.28,54.81,217.36,11.9,53-33.89,85.06-83.44,113.68-135.53a385.13,385.13,0,0,1,29.57-45.56c21-27.91,28.41-58.47,21.79-91.61-1.42-7.1-6.16-17.31-12-19.25-18.16-6.06-15.78-17.93-15-31.12,1.79-32.16,5.69-64.59,3.19-96.52-4.29-54.58-28.74-101-78.46-132.49C584.07,59.1,499,47.85,408.74,75.49c-104.22,31.91-152,94.64-151.8,197.6v60.3c-21.11-14.15-24-34.35-22.07-56.5.93-10.69,0-21.52,0-32.29,0-46.42,17.14-86.86,50-121.29,78.3-82,201.67-111.53,314.89-73.74,82.84,27.64,172.56,97,165.29,215.67a395.15,395.15,0,0,0,.65,62.4c.61,6.25,10.1,11.76,15.52,17.61,6.66-5.57,19-11,19.09-16.71.88-43.69,4.69-88.2-2.53-131C785.53,124.79,736.83,72.86,668,40.21,630.54,22.41,588.41,13.11,548.38,0H1000V896.54c-1.57-6.12-3.61-12.17-4.62-18.37-9.23-57-32.46-105.37-96.07-124.72C825.42,731,750.81,710.72,676.45,689.7c-3.07-.87-7,.85-10.47,1.36,0,18.39,3.93,36.38-.65,52.21C640.49,829.16,592,901.24,516.83,957c-12.33,9.14-23,9.46-34.29-.51-18.94-16.64-41.14-31-56.39-50.16C375.1,842.22,322,778.05,333.57,687c-28.38,7.12-54.16,12.91-79.49,20.08-51.05,14.47-102.36,28.3-152.57,45C50,769.21,19.36,804.75,9.19,855.35,6.7,867.72,3.09,879.94,0,892.23ZM506,718.16c-14,0-24.9-3-32,.63a148.71,148.71,0,0,0-38.34,28.11c-2.79,2.84,2.28,17.71,8,21.66,25.7,17.72,20.75,37.52,8.08,59.06-2.19,3.71-3.53,7.87-5.21,11.85-17.63,41.71-16.3,46.81,20.18,76.36,2.9,2.35,6,4.5,9,6.75,25.14,18.91,25.14,18.91,49-1.45,46.07-39.36,47.53-39.91,22.66-93.15-11.67-25-14.15-44.76,10.38-63.06,12.76-9.54,8-18.9-.63-29.4C542.33,717.35,522.63,716.18,506,718.16Z"/><path class="cls-2" d="M0,892.23c3.09-12.29,6.7-24.51,9.19-36.88,10.17-50.6,40.78-86.15,92.32-103.3,50.21-16.7,101.55-30.53,152.6-45,25.33-7.17,51.1-13,79.49-20.08C322,778.07,375.1,842.17,426.17,906.33c15.26,19.18,37.45,33.52,56.4,50.16,11.33,10,21.95,9.65,34.29.51C592,901.25,640.52,829.17,665.36,743.28c4.58-15.83.65-33.82.65-52.21,3.49-.5,7.39-2.25,10.47-1.36,74.36,21,149,41.29,222.83,63.75,63.64,19.35,86.84,67.73,96.07,124.73,1,6.19,3.06,12.24,4.62,18.36V1000H0Z"/><path class="cls-2" d="M548.38,0c40,13.12,82.16,22.38,119.65,40.18,68.75,32.61,117.5,84.58,129.77,157.36,7.21,42.73,3.4,87.28,2.52,131-.12,5.68-12.43,11.14-19.09,16.71-5.42-5.85-14.91-11.36-15.52-17.61a395.15,395.15,0,0,1-.65-62.4c7.27-118.65-82.45-188-165.29-215.67-113.22-37.79-236.59-8.23-314.83,73.74-32.87,34.43-50,74.87-50,121.29,0,10.77.88,21.6,0,32.29-1.92,22.15,1,42.35,22.07,56.5v-60.3c-.23-103,47.58-165.69,151.8-197.6C499,47.85,584.13,59.1,662.69,108.78c49.72,31.49,74.16,77.91,78.46,132.49,2.5,31.93-1.4,64.36-3.19,96.52-.73,13.19-3.11,25.06,15,31.12,5.82,1.94,10.56,12.15,12,19.25,6.63,33.18-.8,63.7-21.78,91.61a386.47,386.47,0,0,0-29.58,45.56C685,577.42,652.91,627,599.89,660.81c-67.13,42.91-155.33,37.55-217.36-11.9-44.84-35.66-74.9-81.15-99.21-130.25-6.44-13-11.82-18.88-29.95-18-14.34.7-34.27-7.63-43.28-18.24-28.47-33.73-46.18-73-43.51-117,.75-12.31,8-27,17.51-35.42,11.59-10.19,14.65-20,14.59-33.6-.15-32.25-4.41-65.57,2.55-96.58C223.83,99.18,297,42.18,398.47,13.15,418.78,7.34,440,4.32,460.77,0ZM345.2,559.87c10.34,13.83,19.93,28.22,31.17,41.39,55.88,65.49,168,74.83,230.39,15.35,27.23-26,45-60.72,66.12-92.07C687.45,503,702,481.2,713.76,458.28a186.62,186.62,0,0,0,17.39-52.6c1.21-6.83-8.17-15.28-12.73-23-6.85,4.5-15.34,7.82-20.16,13.76-6.14,7.56-9.32,17.23-13.78,26,1.65-28.21,6.35-55.5,11.29-82.75,3.2-17.66-1.86-24.74-23.62-25.59-99.46-4-192.19-26.09-265.77-94.84-4.81-4.5-15.34-7.15-22.07-5.77-44.86,9.19-93.21,67.35-82.63,108,8.51,32.69,10.66,66.83,16.58,106.7-8.54-15.87-12.88-26.65-19.8-35.69-3.61-4.71-11.81-6.36-17.93-9.4-.52,5.77-2.82,12-1.2,17.22,4.24,13.68,9.93,27,15.52,40.3,6.34,15.05,8.85,34.93,20.67,43.85,30.54,23.09,65,41.8,98.69,61,5.62,3.21,19.32,3,22.62-.74C455.05,524,479.15,530.75,501.25,531c19.83.19,33.19,14.74,33.15,31.89,0,18.85-13,30.49-34.78,32.2-55.1,4.25-103.42-14.76-154.41-35.18Z"/><path class="cls-2" d="M506,718.16c16.58-2,36.28-.81,51.13,17.26,8.63,10.5,13.39,19.86.63,29.39-24.53,18.31-22,38.08-10.38,63.07,24.87,53.24,23.41,53.84-22.66,93.15-23.88,20.36-23.88,20.36-49,1.45-3-2.25-6.1-4.35-9-6.75-36.48-29.55-37.81-34.66-20.18-76.36,1.68-4,3-8.14,5.21-11.85,12.67-21.54,17.62-41.34-8.08-59.06-5.71-4-10.82-18.83-8-21.66A148.71,148.71,0,0,1,474,718.69C481.15,715.18,492.09,718.16,506,718.16Z"/><path class="cls-1" d="M345.21,559.87c51,20.42,99.31,39.43,154.43,35.14,21.8-1.71,34.74-13.35,34.78-32.21,0-17.15-13.32-31.7-33.15-31.89-22.09-.2-46.2-7-64.41,13.69-3.31,3.75-17,3.94-22.63.74-33.66-19.12-68.14-37.88-98.69-61-11.82-8.93-14.33-28.81-20.67-43.86-5.59-13.29-11.27-26.61-15.52-40.3-1.61-5.19.7-11.44,1.2-17.21,6.12,3,14.31,4.69,17.93,9.4,6.93,9,11.27,19.81,19.8,35.69-5.91-39.87-8.07-74-16.58-106.7-10.58-40.56,37.78-98.72,82.63-107.95,6.73-1.39,17.27,1.27,22.08,5.77C480,288,572.71,310,672.17,314c21.76.88,26.82,7.88,23.63,25.6-4.94,27.24-9.62,54.54-11.29,82.75,4.46-8.76,7.63-18.43,13.78-26,4.8-5.94,13.3-9.27,20.16-13.75,4.55,7.71,13.94,16.17,12.73,23a186.61,186.61,0,0,1-17.4,52.61c-11.8,22.91-26.33,44.69-40.87,66.25-21.18,31.31-38.9,66.12-66.13,92.07-62.43,59.53-174.51,50.19-230.39-15.35C365.14,588.09,355.55,573.7,345.21,559.87Z"/></svg>