<svg id="Layer_1" data-name="Layer 1" xmlns="http://www.w3.org/2000/svg" viewBox="0 0 1000 1000"><defs><style>.cls-1{fill:#010101;}.cls-2{fill:#fff;}</style></defs><path class="cls-1" d="M466.83,0h64.95C549.4,2.27,567.2,3.6,584.6,7,753.58,39.67,877.24,132.9,952,288.35c45.89,95.53,58.61,196.62,39.35,301.4q-24.74,134.44-114,237.8c-71.66,83-160.67,137.35-268.1,160-27.54,5.79-55.75,8.38-83.65,12.45h-63c-17.62-2.23-35.47-3.36-52.84-6.87C257.91,962.47,142.68,879.39,65.46,745.34,8.12,645.8-11.54,537.7,6.44,424,24.61,309,76.85,211.42,161.89,131.87,228.94,69.16,307.62,28.39,397.69,10.48,420.53,6,443.78,3.44,466.83,0Z" transform="translate(0)"/><path class="cls-1" d="M445.83,334.75v84.32c0,4.67-.17,7.86-6,10.31-3,1.27-3.68,9.66-4,14.91-.09,1.63,4.47,4.91,7,5.06,10.68.57,21.41.24,32.28.24,1.74-9,6.17-17.27-4.5-22.78-1.33-.64-1.81-3.66-1.82-5.57-.11-28.52-.08-57-.08-85.54a11.1,11.1,0,0,1,4.31,6.88c7,32.36,13.8,64.78,21.21,97.05.87,3.74,5.42,6.64,8.27,9.95,2.79-3.35,7.21-6.31,8.1-10.1,5.48-23.42,10.12-47,15.15-70.56,2.41-11.28,5.07-22.51,7.63-33.77,2.46,29.23,2.51,58.1,2.36,87,0,1.81-1,4.53-2.41,5.32-10.78,5.68-4.47,14.09-5.3,22,15.16,0,28.78.36,42.34-.21,4.48-.18,12.22-2.22,12.62-4.46,1-5.7,5.39-14.35-5.84-16.93-1.64-.37-3.26-5-3.28-7.73q-.39-38.83,0-77.66c0-2.54.83-6.87,2.25-7.34,13-4.15,6.9-13.41,6.89-22.29-17.06,0-33.4.09-49.73,0-15.66-.12-15.91.19-18.28,15.77-1.62,10.63-3.82,21.15-5.76,31.71l-2.75-.2c-2.72-12.91-5.19-25.9-8.35-38.71-.77-3.1-3.78-8-5.89-8-18.66-.62-37.35-.36-56.57-.36C436.49,322.72,429.71,333.85,445.83,334.75Z" transform="translate(0)"/><path class="cls-1" d="M865.33,363.74l-2.27.27c-2.8-14.32-5.3-28.7-8.56-42.93-.68-3-3.66-7.79-5.72-7.86-18.66-.61-37.36-.36-56.16-.36-1,10.75-4.84,21,9.28,22.52v92.21l-9.69,2.66c-1.33,19.41-1.33,19.39,17.23,19.13,4.54-.07,9.12.34,13.6-.12,3.44-.37,9.4-1.33,9.65-2.81.89-5.2,1.78-13.88-.91-15.58-7.82-5-6.5-11.5-6.52-18.25V334.77l2.93-.4c1,3.43,2.26,6.8,3,10.3,6.49,31.41,12.66,62.9,19.62,94.21.88,4,5.8,7.15,8.85,10.7,2.65-3.47,6.77-6.58,7.68-10.45,6-25.79,11.21-51.81,16.78-77.65,1.32-6.33,3.07-12.6,4.62-18.89l3.5.34c0,26.57.13,53-.24,79.56,0,2.27-4.3,4.24-5,6.79a55,55,0,0,0-2.32,16.62c0,1.33,6,3.17,9.28,3.29,11.49.43,23.12-.73,34.47.49,10.6,1.15,13.54-4.23,12.14-12.41-.78-4.5-5.48-8.32-8.41-12.44C930,398,930,370,930.13,342.07c0-2.48,1.17-6.7,2.65-7.16,13.5-4.07,6-13.63,7-22.09-20.22,0-39.37-.37-58.48.4-2.88.11-7.21,5.1-8,8.52C870.14,335.59,867.94,349.71,865.33,363.74Z" transform="translate(0)"/><path class="cls-1" d="M99.09,657.86c4.33,13.83,7.71,15.26,20.64,13.28,5.77-.89,12.41.42,18,2.47,10.38,3.84,20,9.8,30.49,13.29s14.58.57,17.41-10.18a86.86,86.86,0,0,0,1.51-8.94l-40.3-15c6.84-4.28,11.82-7.35,16.76-10.48,11.28-7.2,19.51-17,23.56-29.77,8.5-26.89,8.59-54.1-2.09-80.08-8.91-21.63-25.69-35.54-50.15-36.47-23.75-.91-41.26,10.88-51.06,31.74a113.84,113.84,0,0,0-9.62,38.16c-2.9,34.88,5,65.55,39.13,83.38.34.17.34,1,.5,1.5Z" transform="translate(0)"/><path class="cls-1" d="M318.74,649.21h61.71c-2.1-8.36-1.84-18.82-6-21-6.76-3.6-6.51-7.6-5.43-12.38,1.32-5.78,2.5-14.37,6.37-16.23,13.26-6.35,24.68,1.33,26.39,15.94.36,3.06.52,6.12.76,9-11,5-11,5-8.26,24.67h57.45c.18-2.5.41-4.16.42-5.83V630.05c-11.14-4.46-11.21-4.45-13.46-16.43-2.58-13.71-5-27.45-7.53-41.18-3-16.56-6.05-33.1-9.2-50.3l11.12-1.66V499.22c-6-.46-11.43-1.25-16.89-1.26-23,0-46.07,0-69.11.43-3.3,0-9.28,2.65-9.36,4.38-.37,6.2-5,13.76,4.09,18.51,2.66,1.32,5.31,6.36,4.88,9.16-5.22,31.62-11.07,63.13-16.7,94.43C317.23,628.57,317.23,628.57,318.74,649.21Z" transform="translate(0)"/><path class="cls-1" d="M318.23,498.17c-12.63,0-24.15-.37-35.6.22-3.58.18-9.66,2.56-10,4.67-.88,5.48.47,11.43,1.6,17.05.66,3.29,3.73,6.33,3.77,9.51.31,28,0,56,.31,84,.1,8.37-3,14.06-11,15-9.28,1.11-12.75-5.41-13.71-13.57a60.06,60.06,0,0,1-.27-7.35c.23-25.89.35-51.81.95-77.67.08-3.07,3.54-5.95,4.08-9.17a61.9,61.9,0,0,0,1-17.5c-.26-2-4.79-5-7.43-5.07-17.35-.45-34.73-.24-53.58-.24v22.4l12.49,1.33a41.52,41.52,0,0,1,.64,4.85c0,25.52-.41,51.05-.15,76.57.36,33.74,11.85,46.18,45,49.58,26.1,2.66,48.57-13.75,49.22-37,.76-27.28,1.1-54.6.23-81.86-.32-9.87,1.5-14.62,12.56-13.29Z" transform="translate(0)"/><path class="cls-1" d="M305,448.3c.78-8.1,4.58-16.56-5.05-22.58-1.83-1.15-2.15-5-2.85-7.67-2.4-9.1-4.3-18.36-7.12-27.33-2.16-6.9-.78-11.77,4.52-16.77a24.94,24.94,0,0,0,6.83-12.31c5.4-26.31-12-47.74-39.45-48.55-17.45-.52-34.92-.45-52.37-.18-4.11.07-8.18,2.06-12.27,3.17,1.73,5.39,3.3,10.84,5.24,16.15,1.19,3.27,4.16,6.31,4.2,9.49q.53,38.85,0,77.7a12.71,12.71,0,0,1-5.6,9.13c-7.75,4.37-3.37,10.78-2.95,15.94.16,1.94,5.89,4.7,9.19,4.89a334.21,334.21,0,0,0,33.5,0c4.38-.2,12.4-2.25,12.39-3.4,0-6.22,6.63-15-5.14-18.38-1.73-.49-3-5.15-3.17-8a139.42,139.42,0,0,1,.08-22c.29-3,3.15-5.71,4.85-8.56,2.65,2.24,6.63,4,7.55,6.81,2.87,8.19,4.46,16.83,6.63,25.24,7.7,29.73,8.21,30.07,39.15,28.16C303.4,449.28,303.71,449,305,448.3Z" transform="translate(0)"/><path class="cls-1" d="M850.08,625.7c-1.87.22-3.5.46-5.14.62-11.19,1-7.53,9.72-8.09,16-.7,8,5,7.85,10.48,7.86,16.37,0,32.74.19,49.11-.12,4.43-.08,11.2,1,10.23-6.72-.73-5.8,5.22-14.61-6.69-16.68-2.92-.54-6.8-5.58-7.13-8.87a77.57,77.57,0,0,1,9-44.46c6.8-13,13.66-25.91,19.89-39.12,3.75-8,7.47-15.1,18.33-13.56.2-3.16.44-5.55.48-8,.19-14-.24-14.53-14.59-14.76-8.36-.12-16.74,0-25.18,0-18.29,0-18.72.46-16.94,18.94a24.82,24.82,0,0,0,1.2,4.14l13.26,1-21.13,43.63-20.05-43.75,14.07-1.17c.19-3.86,0-7,.52-10.05,1.6-10.38-3-13.29-12.9-12.76-14.27.76-28.62,0-42.92.26-4.77,0-11.82-2.14-11.2,6.51.48,6.41-5.42,16.38,8.38,17.05,2.65.14,5.75,4.55,7.34,7.64,6.63,13,11.73,27,19.41,39.37C850.85,586.57,851.78,605.45,850.08,625.7Z" transform="translate(0)"/><path class="cls-1" d="M770.51,629.59c-4.52-4.8-14.71.74-14.42-10.72.57-23.08-.11-46.19.1-69.28.1-9.22,1.18-18.43,1.87-28.41l13.14.73V553.8H798c0-15.07-.33-29.36.13-43.64.3-9.3-3.85-12.44-12.51-12.36-19.55.19-39.1,0-58.65,0H675.1c0,17.51-1.43,34.33.49,50.74,1.32,11.09,12.51,5.19,19.34,6,6.55.82,6.74-4.38,6.63-9.22-.08-7.89,0-15.77,0-23.31,11.83-2.66,14.58,2.28,14.44,11.65-.31,25.88-.43,51.81.2,77.63.25,10.63-.22,19.1-14.37,17-.13,2.66-.25,4.39-.31,6.1-.59,15.94,0,16.12,16.19,15.37,13.94-.65,27.92-.12,41.89-.21,3.57,0,7.15-.43,10.86-.67Z" transform="translate(0)"/><path class="cls-1" d="M535.62,521.22V497.89H480.19c-21.37,0-21.37-.06-19.3,21.45,0,.29.41.55,1.13,1.44,13.36-2.8,13.32,5.8,13.15,16-.44,26.57-.11,53.14-.19,79.71,0,3.69-.65,7.37-1,10.84-14.18,1.33-15,3-11.93,22.85,35.86,0,72,.16,108.19-.35,2.48,0,6.9-5,7-7.76.7-17.07.84-34.21.11-51.26-.11-3-4.73-7.35-8.09-8.41a23.83,23.83,0,0,0-14.4.29c-3.43,1.23-6.72,5.19-8.26,8.74-1.42,3.26-.51,7.56-.46,11.4.28,25.57.29,25.59-25.43,24.2-.61,0-1.18-.62-2.73-1.48V521.22Z" transform="translate(0)"/><path class="cls-1" d="M315.64,428.39c0,5.6-1,10.07.3,13.73,1.05,3,4.75,7.12,7.34,7.16q45.08.77,90.05,0c2.57,0,7.14-3.87,7.28-6.15.71-12.44.34-25,.34-38-6.43-.48-11.6-.77-16.75-1.33-8-.78-12.23,2.24-11.07,10.63s-.27,14.36-11,14.11c-13.71-.31-15.55-1.57-15.65-14.43,0-5.59-.82-11.32.14-16.74.49-2.79,3.79-6.92,6.24-7.24,15.91-2.11,16.65-2.87,13.06-20.34a52.88,52.88,0,0,0-8,0c-10.18,1.55-13.11-3.9-12.64-12.78.37-7.28.81-14.54,1.32-22.87h26.95c0,4.73.39,8.25-.08,11.66-1.26,9.3,3.25,12,11.56,11a31.38,31.38,0,0,1,6.28,0c7.15.59,10.18-2.4,9.75-9.77a167.57,167.57,0,0,1,0-23.07c.66-8.51-2.11-11.67-11.05-11.51-27.92.5-55.85.16-83.78.21-3.34,0-6.63.45-10,.69-.43,4.93-1.48,8.86-.84,12.49.48,2.76,3.06,7.3,4.79,7.33,9.27.17,8.52,6.26,8.51,12.34,0,23.45-.3,46.9.13,70.33C329,424.81,327.45,430.58,315.64,428.39Z" transform="translate(0)"/><path class="cls-1" d="M122.38,400.69c12.37-2.23,22.83-3.26,32.74-6.14,14.32-4.17,24.33-13.28,26.77-29,4-25.78-8.33-46.12-34.08-49.9-23.86-3.51-48.4-2.77-73.38-4-.61,7.26-2.1,12.64-1.05,17.46.5,2.3,6.27,3.07,8.8,5.43a11,11,0,0,1,2.73,7.31c.2,25.86.33,51.81-.15,77.62,0,3-3.35,8-6,8.64-10.4,2.66-4.58,10.37-4.92,15.57-.12,1.74,5.55,5.45,8.69,5.56,13.58.55,27.2.23,40.8,0,4.71-.1,11.93,2.86,12-5.52.11-6.15,4.61-16-8.58-15.7-1.43,0-4.1-3-4.2-4.68C122.19,415.54,122.38,407.66,122.38,400.69Z" transform="translate(0)"/><path class="cls-1" d="M740.47,312.9c-3.52,9.1-4.66,16.58,3.26,22.84,1.45,1.14,1.65,4.46,1.66,6.77q.12,36.18-.08,72.37c0,8-2.21,15.41-11.78,15.25-9.78-.17-11-7.77-10.95-15.76.09-23.43,0-46.85.1-70.29,0-3,0-7.32,1.81-8.74,8.32-6.64,4.54-14.19,3.56-22.59-16.34,0-32-.27-47.64.27-2.65.09-7.58,3.68-7.55,5.58.09,5.12-4.43,13.29,4.66,14.73,7.67,1.25,7.32,5.81,7.31,11.24-.07,23.44-.14,46.86,0,70.28.09,14.84,5.43,27.57,20.21,32.11,10.33,3.17,22.07,4.72,32.69,3.29,21.69-2.89,31.11-15.45,31.19-37.42.09-23.08-.2-46.16.21-69.23,0-3.27,2.83-8.9,5-9.3,7.45-1.33,10.38-6.16,8.29-11.63-1.58-4.14-7.2-8.75-11.56-9.3C761.1,312,750.83,312.9,740.47,312.9Z" transform="translate(0)"/><path class="cls-1" d="M589.73,520.59l15.67,1.32v96.17c0,6-2.19,9.44-8.56,9-7-.5-8.78,2.83-8.59,9.49.38,13.28,1.32,14.25,14.13,13.55,10.43-.57,20.9-.52,31.35-.61,10-.1,20,0,30.94,0,0-6.47.58-12-.28-17.27-.35-2.13-4.24-5.64-5.87-5.32-10.91,2.22-11.26-4.48-11.25-12.09,0-27.6-.09-55.22-.08-82.83,0-3,.46-6,.71-9.3,2.36-.34,4.07-1,5.7-.78,7.87.87,12.79-1.24,12.4-10.46s-3.3-14.21-13.71-13.73c-15.32.71-30.68.33-46,.35-19.33,0-19.34,0-17.5,19.12A27.08,27.08,0,0,0,589.73,520.59Z" transform="translate(0)"/><path class="cls-1" d="M691.11,821.89c-.22.54-.44,1.1-.66,1.66-11.11-2.33-22.22-4.68-33.34-7-8.52-1.76-10.9.58-9.17,9.06,2.56,12.57,11.38,19.8,22.19,24.65,21.46,9.62,44.32,12,67.43,10.49,16-1,32.18-2.91,49-12.78-15.9-13.45-29.89-26.41-45.07-37.94-18.67-14.24-39.89-23.42-63.82-21.81-7.56.5-15.56,5.07-21.91,9.78-5.65,4.18-4.48,9.44,3.22,12.06C669.89,813.72,680.45,817.92,691.11,821.89Z" transform="translate(0)"/><path class="cls-1" d="M356.58,149.58C328.21,160,302.34,171,282.35,191.05c-10.33,10.32-17.83,23.81-25.07,36.72-2.71,4.85-2,12.28-1.14,18.29.52,3.63,3.7,8.59,6.79,9.6,2.33.77,6.85-3.29,9.6-6,4.94-4.89,9.18-10.49,13.94-15.6,1.33-1.32,3.33-2,5-2.89a155.37,155.37,0,0,1-16,25.24c-5.79,7.59-1.62,10.71,5.21,12.25,11.65,2.66,21-2.29,29.53-9.78C342.72,230.45,349.79,191.38,356.58,149.58Z" transform="translate(0)"/><path class="cls-1" d="M414.79,772.2l1.73-1.06c6.1,9,12.37,17.85,18.26,27,4.2,6.54,8,5.59,12,.09,5.81-7.89,6.72-16.58,4.25-25.86-7.16-27-24-47-45.81-63.1-12.41-9.13-25.68-17.08-38.56-25.55l-2.86,2.06c.8,13.77,1,27.63,2.57,41.31,3.31,28.55,10.34,56,33,75.82,5.53,4.84,13.94,7.83,21.37,8.65,9.91,1.1,11.54-2.66,7.21-11.78S419.2,781.38,414.79,772.2Z" transform="translate(0)"/><path class="cls-1" d="M874.31,771.92c-23.75-13.8-47.37-24.69-73-27.59-16.16-1.82-33.25.6-49.33,4-6.86,1.42-13.4,9.3-17.87,15.75-4,5.74-2.07,11.39,7.14,11,9.93-.4,19.89-.09,29.84-.09v3.09c-8.42,1.06-16.9,1.82-25.18,3.34-4.35.79-8.46,2.94-12.68,4.47,2.2,4.6,3.58,9.91,6.84,13.55a23,23,0,0,0,12.26,7.23c10.61,1.77,21.43,3.33,32,2.76C818,807.61,845.46,790.27,874.31,771.92Z" transform="translate(0)"/><path class="cls-1" d="M138.41,772.1c16.91,9.3,31.73,18.14,47.2,25.69C207,808.23,229.94,813,253.53,808.42c8.25-1.61,16-7.24,23.12-12.32,2.57-1.83,3.77-7.69,3.05-11.18-.37-1.78-6.27-2.89-9.81-3.47-8.8-1.44-17.68-2.41-26.51-3.55l.32-3c10,0,20.05-.15,30.07,0,8.33.16,9.47-3.7,6.74-10.63-4.3-10.87-13-15.94-23.6-18.6C214.07,735.31,177.27,752.18,138.41,772.1Z" transform="translate(0)"/><path class="cls-1" d="M228.06,849.85c36.09,11,70.83,16.36,106,4.91,13.16-4.28,24.3-12.33,30.49-25.25a14.87,14.87,0,0,0-.08-11.65c-.84-1.64-6.78-1.52-10.18-.91-10.38,1.88-20.64,4.41-30.94,6.64A175.16,175.16,0,0,1,354.78,810c8.52-2.82,8.36-6.85,3.09-12.75-10-11.14-22.88-10.84-35.79-8.66C282.74,795.32,255.4,820.83,228.06,849.85Z" transform="translate(0)"/><path class="cls-1" d="M657,149.59c2.73,13.86,4.52,24.78,7.08,35.5,6.38,26.78,15.67,52.59,37,71.1,7.8,6.79,19.35,9.64,29.62,13,2.65.85,7.64-2.74,10-5.57,1-1.14-1.73-6-3.51-8.73-4.81-7.34-10-14.43-15.07-21.63l2.65-2c6.71,7.27,13.37,14.62,20.13,21.79,5.15,5.5,8.67,4,11.59-2.46,5.47-12.17,2.32-23.25-4-33.82C731.23,180.89,696.62,164.24,657,149.59Z" transform="translate(0)"/><path class="cls-1" d="M596.31,853.43c-.53.82-1.06,1.64-1.58,2.47-8.21-3.58-16.52-6.92-24.59-10.78-9-4.29-10.46-3.37-11.2,6.86-.82,11.33,4.8,19.26,12.8,26.12,33.34,28.55,73.45,30,114.62,29.41a13.17,13.17,0,0,0-.58-3.63c-12.7-23.51-28.31-45-48.78-62.1-14.18-11.88-30.33-21.38-50.12-20.57-8.85.36-16,3.48-19.64,13Z" transform="translate(0)"/><path class="cls-1" d="M598.67,769.13l2.13,1.27c-5.3,10.2-10.27,20.59-16,30.55-4.53,7.89-.59,9.81,6.18,10.7,11.55,1.52,20.07-3.63,27.55-11.84,17.68-19.44,25.57-43,28.4-68.47C648.64,716,649,700.58,650.1,683c-24.31,12.76-44.91,25.62-60.59,44-10.42,12.18-18.56,27-24.87,41.78-3.12,7.28-1.6,17.87,1,25.95,3.26,10.17,8.18,10.24,14.44,1.66C586.52,787.47,592.48,778.22,598.67,769.13Z" transform="translate(0)"/><path class="cls-1" d="M325.68,908.76c20.31-1.33,37.41-1.71,54.35-3.83,23.56-2.95,45.29-11,63.12-27.54,8-7.44,13.26-15.94,11.76-27.6-1-7.59-3.59-8.63-10.21-5-8.53,4.64-17.63,8.27-26.51,12.34l-1.48-2.89c8-5.21,15.79-10.83,24.11-15.48,7.69-4.3,6.18-8.21.58-12.54-8.57-6.64-18.29-6.07-27.95-3.6-17.7,4.52-31.71,14.88-44.81,27.46C351.57,866.41,338.42,885.23,325.68,908.76Z" transform="translate(0)"/><path class="cls-1" d="M663.88,429.53c-16.34-2-16.63-2.38-16.55-18.45.06-14,0-27.9,0-41.94V334.6c4.16-.26,6.89-.5,9.63-.55,10.9-.21,6.18-8.9,7.35-14.09,1.23-5.48-2.22-7.28-7.31-7.26-18.13.11-36.26-.22-54.34.41-2.31.08-6.18,4.89-6.26,7.62-.15,4.62-4.07,13.08,5.17,12.91,9.78-.17,9.68,5.14,9.64,12-.12,22.37-.36,44.74.1,67.1.21,10.21.25,19-14.68,15.51v21.26c21,0,41.19.16,61.33-.25,2,0,5.15-3.42,5.63-5.69C664.53,439.29,663.88,434.66,663.88,429.53Z" transform="translate(0)"/><path class="cls-1" d="M211.37,155.7c-14.38,24.07-25.85,47.07-31.11,72.63-3.57,17.27-4,34.63,2.46,51.62,2.35,6.26,6,9.24,12.68,7.52s14.47-1.58,13.94-12c-.27-5.17.48-10.38.76-15.57,3.24,6.64,3.73,13.16,5.05,19.54.53,2.66,2.24,6.08,4.38,7.09,10.16,4.84,20,.07,22.74-10.92a104,104,0,0,0,2.55-17.56C247.65,220.08,230.19,188.7,211.37,155.7Z" transform="translate(0)"/><path class="cls-1" d="M800.1,256.39h4.19V273c0,7.9,2.29,13.57,11.66,13.85,8.84.28,16.74-.87,17.23-11.77.65-15.58,2.36-31.47.17-46.73-3.71-26-16.59-48.67-31.58-71.25A517.23,517.23,0,0,0,775,215a97.47,97.47,0,0,0-2.65,62.69c3.12,10.89,11.24,10.06,19.08,9.92,8.53-.14,8.18-7.29,8.59-13.06C800.44,268.49,800.1,262.43,800.1,256.39Z" transform="translate(0)"/><path class="cls-1" d="M941.77,675.73l-.46-3.52c-7.51,0-15-.43-22.54.14-5.09.39-10.07,3.07-15.12,3.15-22.3.35-44.63.76-66.9-.09-21.61-.83-35.53,12.55-30.94,33.21l42.42-8.4a271.37,271.37,0,0,1-33.83,13.69c-7.3,2.46-8.31,7.52-3.12,11.36,6.34,4.67,14.31,9.67,21.73,9.93C881,736.89,911,705.49,941.77,675.73Z" transform="translate(0)"/><path class="cls-1" d="M325.15,762.37c12.64-.61,20.75-9.3,22.1-23.58C349.07,719.58,346,701,337,684c-1.93-3.65-7.43-6.09-11.79-7.6-7.1-2.45-14.84-3-21.86-5.57-8.53-3.1-21.36,1.64-23,10-4.76,24.71-3.42,48.93,9.57,71,3.21,5.48,9.62,10,15.59,12.7,8.88,4,11.31,1.76,10.54-8-1-12.25-2.32-24.47-3.52-36.69l1.09-.19Z" transform="translate(0)"/><path class="cls-1" d="M699.63,721l2,.26q-2.11,18.11-4.22,36.21c-.79,6.9,1.54,9.56,9,8,9.85-2.17,15.9-8.39,20-16.83,10-20.2,10.17-41.76,8.27-63.52-.53-6-3.76-8.73-10.38-9.07-12.35-.67-24.61-2.85-36.95-3.74-2.22-.16-5.65,2.31-6.83,4.48-9.28,17.1-15.23,35.27-14.17,55,.58,10.82,1.85,21.78,12.34,28.57,6.63,4.29,10.6,3.52,12.49-5C693.64,743.77,696.78,732.44,699.63,721Z" transform="translate(0)"/><path class="cls-1" d="M176.29,296.28c1.44-8.87-26.11-45.79-44.26-56.91-3,13.12-6.28,25.82-8.57,38.7-.45,2.51,2.4,7.73,4.54,8.25C144,290.13,160.18,293.07,176.29,296.28Z" transform="translate(0)"/><path class="cls-1" d="M841.22,283.3c.53,1.09,1,2.18,1.56,3.27,14.73,0,29.47.11,44.19-.19,1.33,0,4-2.85,3.75-4-2.65-14.61-5.7-29.1-8.64-43.63l-3.84-.22Z" transform="translate(0)"/><path class="cls-1" d="M271.72,285.72v3.63c9.65,1.09,19.34,3.28,28.95,3,9.28-.32,18.56-3.87,27.84-4.8,8.75-.87,17.65-.18,26.51-.18C327.21,280.55,299.46,277.47,271.72,285.72Z" transform="translate(0)"/><path class="cls-1" d="M666.4,285.79h69.18v-2.66A165.41,165.41,0,0,0,666.4,285.79Z" transform="translate(0)"/><path class="cls-2" d="M445.42,336.73c-16.12-.9-9.35-12-10.14-21.86,19.22,0,37.91-.26,56.57.37,2.12.08,5.13,4.94,5.89,8,3.17,12.8,5.63,25.78,8.35,38.71l2.76.2c1.95-10.56,4.13-21.1,5.75-31.71,2.39-15.6,2.65-15.94,18.28-15.77,16.34.13,32.67,0,49.73,0,0,8.87,6.15,18.13-6.88,22.29-1.41.45-2.24,4.8-2.26,7.33q-.24,38.82,0,77.67c0,2.65,1.64,7.36,3.3,7.73,11.23,2.56,6.86,11.22,5.83,16.92-.41,2.25-8.15,4.27-12.63,4.47-13.56.57-27.16.21-42.34.21.88-8-5.43-16.34,5.3-22,1.33-.72,2.4-3.44,2.42-5.25.14-28.85.1-57.71-2.36-87-2.55,11.26-5.21,22.49-7.63,33.77-5,23.53-9.66,47.14-15.15,70.56-.89,3.79-5.3,6.75-8.1,10.1-2.85-3.3-7.41-6.21-8.27-9.95-7.45-32.27-14.21-64.69-21.21-97.05a11,11,0,0,0-4.29-6.88q0,42.76.08,85.53c0,1.92.55,4.94,1.8,5.58,10.61,5.54,6.26,13.8,4.51,22.78-10.87,0-21.6.33-32.28-.24-2.56-.15-7.12-3.43-7-5.06.27-5.25.95-13.64,4-14.91,5.85-2.45,6-5.64,6-10.31C445.41,393.42,445.42,365.79,445.42,336.73Z" transform="translate(0)"/><path class="cls-2" d="M864.93,365.72c2.65-14,4.8-28.15,8.11-42,.81-3.42,5.14-8.41,8-8.52,19.12-.77,38.27-.4,58.49-.4-1,8.46,6.47,18-7,22.08-1.51.47-2.65,4.68-2.65,7.16-.19,28-.12,56,2,82.77,2.93,4.11,7.61,8,8.39,12.44,1.42,8.17-1.51,13.56-12.13,12.41-11.38-1.22-23-.06-34.46-.49-3.29-.12-9.28-2-9.28-3.29a54.33,54.33,0,0,1,2.32-16.62c.7-2.55,5-4.52,5-6.79.37-26.57.24-53,.24-79.57l-3.61-.34c-1.55,6.3-3.26,12.57-4.62,18.9-5.58,25.9-10.82,51.82-16.8,77.65-.89,3.87-5,7-7.66,10.45-3.06-3.55-7.95-6.65-8.87-10.7-7-31.31-13.11-62.8-19.6-94.22-.72-3.49-2-6.86-3-10.29l-2.94.4v77.81c0,6.75-1.32,13.28,6.52,18.25,2.65,1.7,1.81,10.38.92,15.58-.25,1.48-6.22,2.44-9.65,2.79-4.5.48-9.07.07-13.6.14-18.56.26-18.56.28-17.23-19.13l9.7-2.66V337.36c-14.16-1.54-10.35-11.77-9.28-22.52,18.81,0,37.5-.25,56.18.36,2,.07,5,4.84,5.71,7.86,3.21,14.23,5.77,28.61,8.55,42.93Z" transform="translate(0)"/><path class="cls-2" d="M98.68,659.84l14.78-7.14c-.14-.5-.16-1.32-.49-1.51-34.17-17.82-42-48.49-39.13-83.38a113.53,113.53,0,0,1,9.61-38.15c9.81-20.87,27.32-32.64,51.08-31.74,24.45.93,41.23,14.84,50.13,36.47,10.7,26,10.6,53.14,2.09,80.08-4,12.82-12.27,22.58-23.55,29.76-4.95,3.15-9.92,6.22-16.77,10.49l40.3,15.06a79.85,79.85,0,0,1-1.52,8.94c-2.87,10.73-6.87,13.71-17.4,10.17s-20.09-9.47-30.49-13.28c-5.59-2.06-12.22-3.36-18-2.47C106.4,675.1,103,673.67,98.68,659.84ZM148,574.42c-.85-11.54-1.32-24.42-2.89-37.2-.84-7-3.5-14.16-12.63-13.81-8.87.35-11.74,6.91-11.82,14.41-.31,25.7-.21,51.42-.15,77.14,0,8,3.51,13.59,12.22,13.8s12.18-5.61,12.77-13.37C146.51,602.21,147.16,589,148,574.42Z" transform="translate(0)"/><path class="cls-2" d="M318.37,651.19c-1.51-20.65-1.51-20.65,11.32-24.34,5.63-31.3,11.46-62.81,16.7-94.43.46-2.81-2.28-7.8-4.89-9.16-9.1-4.75-4.47-12.31-4.09-18.51.1-1.71,6-4.32,9.36-4.38,23-.48,46.07-.48,69.1-.43,5.48,0,10.94.8,16.9,1.33v21.25l-11.12,1.67c3.14,17.27,6.17,33.74,9.2,50.29,2.51,13.73,4.95,27.46,7.52,41.19,2.25,12,2.32,12,13.48,16.43v13.28c0,1.68-.24,3.34-.44,5.84H393.92c-2.65-19.63-2.65-19.63,8.27-24.67-.23-2.86-.41-5.93-.76-9-1.71-14.62-13.09-22.35-26.38-16-3.89,1.86-5.09,10.46-6.39,16.24-1.08,4.78-1.33,8.77,5.43,12.38,4.12,2.19,3.86,12.66,6,21Zm54.94-70c4.57.62,6.95,1,9.28,1.24,12.41,1.06,14.28-.93,12.46-12.93-2.12-14.07-4-28.16-6.28-42.22-.48-2.93-2-5.7-3-8.54l-3.09.39c-3.07,20.38-6.16,40.76-9.41,62.06Z" transform="translate(0)"/><path class="cls-2" d="M317.84,500.15v22.49c-11.09-1.32-12.89,3.37-12.57,13.29.86,27.26.53,54.59-.23,81.86-.65,23.25-23.13,39.63-49.23,37-33.14-3.4-44.6-15.83-44.95-49.58-.26-25.52.1-51,.14-76.57a43.75,43.75,0,0,0-.63-4.85l-12.48-1.33V500.06c18.85,0,36.21-.23,53.58.24,2.65,0,7.17,3,7.41,5.06a61.6,61.6,0,0,1-.95,17.51c-.55,3.2-4,6.1-4.08,9.17-.59,25.89-.71,51.81-.95,77.67a54.62,54.62,0,0,0,.28,7.35c.95,8.16,4.45,14.61,13.7,13.56,8-1,11.12-6.64,11-15-.34-28,0-56-.32-84,0-3.18-3.11-6.22-3.78-9.51-1.12-5.62-2.46-11.57-1.59-17.05.35-2.11,6.43-4.49,10-4.67C293.68,499.77,305.19,500.15,317.84,500.15Z" transform="translate(0)"/><path class="cls-2" d="M304.58,450.28c-1.33.69-1.58,1-1.9,1-30.92,1.91-31.44,1.56-39.13-28.17-2.18-8.43-3.79-17.07-6.62-25.24-1-2.8-5-4.57-7.57-6.8-1.69,2.84-4.56,5.57-4.85,8.56a140.63,140.63,0,0,0-.08,22c.17,2.81,1.44,7.49,3.17,8,11.73,3.37,5.1,12.16,5.15,18.36,0,1.17-8,3.21-12.39,3.41-11.16.51-22.36.59-33.5,0-3.31-.18-9-2.95-9.2-4.89-.42-5.15-4.78-11.57,2.94-15.94a12.65,12.65,0,0,0,5.61-9.12c.45-25.9.41-51.82.07-77.71,0-3.17-3-6.22-4.2-9.48-1.94-5.32-3.52-10.78-5.31-16.16,4.1-1.1,8.17-3.09,12.28-3.16,17.44-.28,34.91-.35,52.36.17,27.44.81,44.87,22.24,39.45,48.56A24.69,24.69,0,0,1,294,376c-5.3,5-6.69,9.87-4.52,16.78,2.83,9,4.71,18.23,7.12,27.33.7,2.65,1,6.52,2.85,7.66C309.17,433.71,305.35,442.2,304.58,450.28Zm-60.83-79.52c8.9,1.74,15.46,1.33,19.17-6.65,4.13-8.76,3.13-22.06-3.06-26.38-3.36-2.34-8.27-2.78-12.57-3.19-1-.09-3.31,3.38-3.38,5.32-.34,10.07-.16,20.12-.16,30.9Z" transform="translate(0)"/><path class="cls-2" d="M849.67,627.68c1.7-20.25.78-39.13-10.24-56.92-7.67-12.37-12.76-26.33-19.41-39.36-1.58-3.1-4.73-7.51-7.34-7.64-13.79-.68-8-10.63-8.37-17.06-.63-8.66,6.43-6.44,11.2-6.51,14.31-.18,28.65.51,42.91-.25,9.9-.53,14.5,2.38,12.9,12.75-.47,3-.33,6.19-.51,10.06l-14.09,1.17c6.63,14.23,12.82,27.9,20.15,43.73L898,524l-13.25-1a22.07,22.07,0,0,1-1.21-4.14c-1.78-18.48-1.33-18.92,16.93-18.93,8.37,0,16.75-.12,25.18,0,14.4.22,14.84.71,14.58,14.76,0,2.4-.27,4.79-.46,8-10.86-1.54-14.58,5.6-18.35,13.55-6.25,13.28-13.12,26.16-19.88,39.12a77.52,77.52,0,0,0-9,44.47c.32,3.28,4.21,8.33,7.13,8.86,11.93,2.14,6,10.88,6.63,16.68,1,7.72-5.81,6.65-10.24,6.73-16.35.29-32.72.13-49,.12-5.44,0-11.18.08-10.49-7.87.56-6.32-3.1-15,8.09-16.05C846.17,628.19,847.82,627.9,849.67,627.68Z" transform="translate(0)"/><path class="cls-2" d="M770.11,631.57v19.31c-3.71.24-7.29.66-10.87.67-14,.09-27.94-.44-41.87.21-16.21.74-16.78.63-16.2-15.37,0-1.71.17-3.43.32-6.1,14.14,2.11,14.58-6.32,14.36-17-.63-25.86-.51-51.81-.2-77.63.12-9.37-2.65-14.24-14.45-11.65v23.31c0,4.84-.15,10-6.7,9.22-6.82-.85-18,5-19.34-6-1.92-16.42-.5-33.22-.5-50.74h51.91c19.55,0,39.1.23,58.65,0,8.67-.08,12.82,3.1,12.52,12.36-.47,14.28-.12,28.57-.12,43.64H770.8V523.89l-13.15-.73c-.69,10-1.77,19.19-1.85,28.41-.23,23.08.46,46.19-.12,69.28C755.4,632.31,765.59,626.77,770.11,631.57Z" transform="translate(0)"/><path class="cls-2" d="M535.21,523.24H517.69V627.48c1.54.86,2.12,1.46,2.73,1.48,25.72,1.33,25.7,1.33,25.41-24.2,0-3.84-.94-8.16.46-11.41,1.55-3.54,4.83-7.5,8.26-8.73a24,24,0,0,1,14.4-.31c3.38,1.08,7.95,5.32,8.11,8.43.72,17,.58,34.19-.13,51.26-.12,2.79-4.52,7.72-7,7.76-36.17.51-72.33.35-108.18.35-3.18-19.93-2.31-21.51,11.86-22.85.33-3.47,1-7.15,1-10.84.08-26.57-.25-53.14.19-79.71.16-10.1.21-18.7-13.17-16-.7-.89-1.08-1.15-1.11-1.44-2.08-21.51-2.08-21.49,19.3-21.45h55.42Z" transform="translate(0)"/><path class="cls-2" d="M315.24,430.37c11.8,2.19,13.39-3.59,13.25-12.44-.43-23.42-.17-46.87-.13-70.32,0-6.08.73-12.16-8.52-12.34-1.71,0-4.3-4.57-4.77-7.33-.64-3.63.41-7.56.83-12.49,3.34-.24,6.63-.68,10-.69,27.93,0,55.86.29,83.78-.21,8.94-.16,11.7,3,11,11.52a167.42,167.42,0,0,0,0,23.06c.42,7.37-2.65,10.36-9.76,9.78a29.86,29.86,0,0,0-6.27,0c-8.32,1-12.82-1.7-11.57-11,.46-3.41.08-6.93.08-11.66h-27c-.46,8.33-.9,15.6-1.32,22.88-.45,8.87,2.47,14.32,12.64,12.78a52.88,52.88,0,0,1,8,0c3.57,17.47,2.82,18.22-13.06,20.34-2.45.31-5.77,4.45-6.26,7.24-.95,5.42-.16,11.14-.12,16.73.08,12.85,1.92,14.11,15.63,14.43,10.75.25,12.17-5.51,11-14.11s3.13-11.46,11.08-10.62c5.15.5,10.32.79,16.75,1.32,0,13.06.38,25.58-.35,38-.13,2.27-4.69,6.11-7.26,6.15q-45.07.66-90.06,0c-2.59,0-6.3-4.17-7.33-7.16C314.26,440.44,315.24,436,315.24,430.37Z" transform="translate(0)"/><path class="cls-2" d="M122,402.67c0,7-.25,14.85.2,22.69.11,1.71,2.77,4.71,4.2,4.67,13.26-.31,8.69,9.56,8.58,15.71-.13,8.38-7.32,5.42-12,5.52-13.6.28-27.23.6-40.82,0-3.12-.12-8.81-3.82-8.69-5.56.36-5.2-5.48-12.88,4.93-15.57,2.65-.71,6-5.61,6-8.64.48-25.86.35-51.81.16-77.64a11.1,11.1,0,0,0-2.73-7.29c-2.53-2.36-8.3-3.13-8.8-5.43-1.06-4.82.42-10.2,1-17.46,25,1.17,49.48.43,73.37,4,25.75,3.78,38.09,24.12,34.08,49.9-2.43,15.63-12.45,24.8-26.77,29C144.8,399.41,134.34,400.44,122,402.67Zm-1.11-44.56c0,4.18-.07,8.38,0,12.57.19,9.51,4.93,12.11,13.16,7.21,8.63-5.14,8.43-13.64,8.46-22.14,0-7.88-2.12-14.5-9.53-18.38s-11.8-1.47-12.08,7.12C120.74,349,120.86,353.57,120.86,358.11Z" transform="translate(0)"/><path class="cls-2" d="M589.33,522.51a26.71,26.71,0,0,1-.9-3.52c-1.84-19.09-1.83-19.06,17.49-19.1,15.33,0,30.71.36,46-.36,10.41-.48,13.34,4.69,13.72,13.74s-4.55,11.33-12.42,10.45c-1.62-.19-3.34.44-5.69.78-.26,3.33-.7,6.34-.7,9.3,0,27.61.08,55.23.07,82.84,0,7.61.33,14.29,11.24,12.08,1.63-.33,5.52,3.18,5.87,5.32.86,5.31.29,10.87.29,17.34-11,0-21-.07-31,0-10.45.09-20.9,0-31.34.61-12.83.7-13.76-.32-14.13-13.55-.18-6.65,1.59-10,8.59-9.49,6.38.45,8.57-3,8.55-9-.09-31.77,0-63.54,0-96.17Z" transform="translate(0)"/><path class="cls-2" d="M690.7,823.87c-10.6-4-21.21-8.17-32-11.81-7.72-2.66-8.87-7.88-3.22-12.07,6.33-4.7,14.34-9.29,21.89-9.77,23.86-1.61,45.15,7.57,63.83,21.81,15.12,11.53,29.16,24.49,45.07,37.94-16.92,9.87-33.14,11.75-49,12.78-23.1,1.5-46-.87-67.41-10.49-10.81-4.85-19.65-12.08-22.21-24.65-1.72-8.49.67-10.82,9.19-9.06,11.11,2.3,22.21,4.65,33.34,7A9.19,9.19,0,0,1,690.7,823.87Z" transform="translate(0)"/><path class="cls-2" d="M356.18,151.56c-6.78,41.8-13.87,80.87-46.39,109.25-8.58,7.49-17.9,12.41-29.55,9.78-6.82-1.54-11-4.66-5.19-12.25a156.44,156.44,0,0,0,16-25.24c-1.69.94-3.76,1.54-5,2.89-4.76,5.11-9,10.71-14,15.6-2.74,2.72-7.26,6.78-9.6,6-3.07-1-6.25-6-6.77-9.6-.86-6-1.59-13.44,1.13-18.29,7.25-12.93,14.75-26.4,25.06-36.73C301.93,173,327.82,162,356.18,151.56Z" transform="translate(0)"/><path class="cls-2" d="M414.39,774.18c4.4,9.18,8.84,18.35,13.25,27.56s2.66,12.88-7.21,11.78c-7.42-.84-15.84-3.81-21.38-8.65-22.68-19.85-29.7-47.27-33-75.82-1.59-13.68-1.76-27.54-2.57-41.31l2.85-2.06c12.89,8.47,26.17,16.42,38.57,25.54,21.85,16.07,38.66,36.14,45.8,63.11,2.47,9.3,1.57,18-4.25,25.86-4.05,5.5-7.81,6.45-12-.09-5.87-9.13-12.14-18-18.25-27Z" transform="translate(0)"/><path class="cls-2" d="M873.9,773.9c-28.84,18.28-56.33,35.69-90,37.51-10.61.57-21.49-1-32-2.78a23,23,0,0,1-12.28-7.21c-3.25-3.64-4.64-9-6.84-13.55,4.22-1.55,8.33-3.7,12.69-4.48,8.34-1.53,16.82-2.27,25.18-3.34V777c-9.95,0-19.88-.31-29.83.09-9.28.36-11.13-5.31-7.15-11,4.47-6.47,11-14.32,17.87-15.74,16.08-3.36,33.14-5.78,49.32-4C826.54,749.21,850.16,760.1,873.9,773.9Z" transform="translate(0)"/><path class="cls-2" d="M138,774.08c38.85-19.93,75.65-36.79,118.48-26.24,10.6,2.65,19.31,7.7,23.61,18.6,2.73,6.91,1.59,10.76-6.75,10.62-10-.18-20,0-30.06,0-.12,1-.23,2-.33,3,8.85,1.14,17.72,2.11,26.51,3.55,3.54.58,9.45,1.68,9.81,3.47.71,3.49-.47,9.29-3,11.18-7.09,5.08-14.87,10.71-23.13,12.3-23.6,4.59-46.5-.22-67.91-10.63C169.75,792.22,154.93,783.35,138,774.08Z" transform="translate(0)"/><path class="cls-2" d="M227.65,851.83c27.35-29,54.69-54.53,94.11-61.19,12.92-2.19,25.82-2.48,35.79,8.66,5.3,5.9,5.43,9.93-3.09,12.76a175.84,175.84,0,0,0-31.39,13.56c10.31-2.27,20.57-4.79,30.94-6.64,3.41-.63,9.36-.74,10.19.92a14.87,14.87,0,0,1,.07,11.65c-6.23,12.9-17.38,21-30.49,25.24C298.48,868.17,263.74,862.86,227.65,851.83Z" transform="translate(0)"/><path class="cls-2" d="M656.55,151.57c39.66,14.61,74.23,31.3,95.52,67.13,6.27,10.63,9.41,21.65,4,33.82-2.92,6.48-6.44,8-11.59,2.46-6.74-7.23-13.42-14.52-20.13-21.79l-2.65,2c5.05,7.19,10.27,14.29,15.08,21.63,1.77,2.66,4.47,7.59,3.51,8.73-2.39,2.83-7.4,6.42-10,5.57-10.27-3.34-21.8-6.19-29.63-13-21.3-18.52-30.59-44.32-37-71.1C661.07,176.33,659.3,165.42,656.55,151.57Z" transform="translate(0)"/><path class="cls-2" d="M595.9,855.37c-9.51-6.3-19-12.58-29.06-19.21,3.65-9.53,10.79-12.65,19.63-13,19.81-.81,35.94,8.69,50.13,20.57,20.46,17.11,36.09,38.52,48.77,62.1a14,14,0,0,1,.6,3.63c-41.19.64-81.3-.86-114.64-29.41-8-6.86-13.61-14.79-12.79-26.13.74-10.23,2.2-11.14,11.19-6.85,8.07,3.86,16.38,7.2,24.59,10.78Z" transform="translate(0)"/><path class="cls-2" d="M598.26,771.11c-6.18,9.09-12.13,18.34-18.56,27.21-6.26,8.58-11.18,8.52-14.44-1.66-2.65-8.08-4.09-18.6-1-25.95,6.34-14.82,14.45-29.59,24.87-41.78,15.69-18.34,36.28-31.2,60.6-44-1.11,17.62-1.47,33.07-3.16,48.37-2.84,25.45-10.73,49-28.41,68.47-7.46,8.21-16,13.37-27.55,11.84-6.77-.89-10.69-2.82-6.17-10.7,5.72-10,10.69-20.36,16-30.55Z" transform="translate(0)"/><path class="cls-2" d="M325.27,910.74C338,887.21,351.16,868.39,368.21,852c13.11-12.58,27.1-22.94,44.81-27.46,9.67-2.47,19.38-3,28,3.6,5.59,4.33,7.1,8.24-.59,12.54-8.31,4.65-16.09,10.27-24.1,15.48l1.48,2.88c8.85-4.07,17.93-7.69,26.51-12.33,6.62-3.59,9.28-2.55,10.19,5,1.54,11.73-3.74,20.15-11.76,27.6-17.83,16.56-39.57,24.59-63.12,27.54C362.68,909,345.58,909.38,325.27,910.74Z" transform="translate(0)"/><path class="cls-2" d="M663.47,431.58c0,5.12.65,9.76-.25,14.05-.49,2.27-3.63,5.63-5.63,5.69-20.14.41-40.29.25-61.35.25V430.25c14.94,3.48,14.9-5.32,14.69-15.52-.45-22.36-.21-44.73-.09-67.1,0-6.79.14-12.1-9.64-12-9.28.17-5.3-8.29-5.18-12.91.08-2.72,4-7.53,6.25-7.61,18.11-.64,36.26-.31,54.35-.42,5.1,0,8.54,1.78,7.32,7.26-1.17,5.19,3.55,13.87-7.36,14.09-2.73,0-5.46.3-9.62.53V413.1C646.84,429.13,647.1,429.53,663.47,431.58Z" transform="translate(0)"/><path class="cls-2" d="M211,157.68c18.82,33,36.26,64.38,33.45,102.41a103.13,103.13,0,0,1-2.57,17.57c-2.74,11-12.56,15.74-22.73,10.92-2.15-1-3.85-4.48-4.39-7.1-1.32-6.39-1.8-12.94-5-19.54-.29,5.19-1,10.4-.76,15.57.53,10.36-7.41,10.27-14,12s-10.33-1.27-12.67-7.52c-6.39-17-6-34.3-2.47-51.63C185.11,204.75,196.57,181.82,211,157.68Z" transform="translate(0)"/><path class="cls-2" d="M941.37,677.71c-30.74,29.75-60.8,61.11-108.69,59.41-7.42-.27-15.38-5.32-21.71-10-5.2-3.83-4.21-8.89,3.11-11.35a269.66,269.66,0,0,0,33.82-13.68l-42.42,8.39c-4.59-20.59,9.28-34,30.95-33.21,22.27.85,44.59.44,66.89.09,5.06-.08,10-2.76,15.14-3.14,7.46-.58,15-.15,22.53-.15Z" transform="translate(0)"/><path class="cls-2" d="M324.76,764.38c-3.81-14.14-7.65-28.43-11.51-42.74l-1.07.17c1.18,12.24,2.54,24.46,3.5,36.71.76,9.78-1.66,12.05-10.61,8-5.95-2.66-12.37-7.21-15.59-12.69-13-22.1-14.33-46.34-9.57-71,1.62-8.36,14.45-13.1,23-10,7,2.56,14.78,3.13,21.86,5.58,4.37,1.51,9.86,4,11.8,7.6,9,17,12.06,35.62,10.24,54.83C345.49,755.14,337.37,763.78,324.76,764.38Z" transform="translate(0)"/><path class="cls-2" d="M699.22,723c-2.83,11.41-6,22.76-8.44,34.25-1.82,8.53-5.85,9.3-12.49,5-10.48-6.79-11.76-17.75-12.34-28.57-1.07-19.71,4.88-37.87,14.17-55,1.18-2.17,4.6-4.64,6.81-4.48,12.35.89,24.62,3.07,37,3.74,6.63.34,9.86,3,10.39,9.07,1.9,21.76,1.7,43.32-8.27,63.51-4.17,8.45-10.16,14.62-20,16.84-7.43,1.63-9.76-1-9-8q2.09-18.12,4.21-36.21Z" transform="translate(0)"/><path class="cls-2" d="M175.88,298.26c-16.1-3.21-32.3-6.15-48.27-10-2.15-.5-5-5.72-4.56-8.23,2.29-12.88,5.56-25.58,8.57-38.7C149.77,252.47,177.33,289.43,175.88,298.26Z" transform="translate(0)"/><path class="cls-2" d="M840.82,285.28l37-44.76,3.85.23c3,14.52,6,29,8.65,43.63.2,1.11-2.42,4-3.77,4-14.72.3-29.45.19-44.19.19Z" transform="translate(0)"/><path class="cls-2" d="M271.31,287.7c27.74-8.25,55.5-5.17,83.28,1.61-8.84,0-17.75-.69-26.51.18-9.36.93-18.56,4.48-27.83,4.79-9.61.33-19.3-1.86-29-2.95Z" transform="translate(0)"/><path class="cls-2" d="M666,287.77a165.37,165.37,0,0,1,69.17-2.66v2.66Z" transform="translate(0)"/><path class="cls-1" d="M148,574.42c-.87,14.61-1.52,27.79-2.5,41-.59,7.76-4,13.59-12.77,13.38S120.57,623,120.54,615c0-25.71-.16-51.43.15-77.14.08-7.49,3-14.06,11.82-14.4,9.13-.36,11.79,6.77,12.63,13.8C146.68,550,147.18,562.88,148,574.42Z" transform="translate(0)"/><path class="cls-1" d="M373.27,581.24c3.25-21.25,6.34-41.68,9.43-62.06l3.08-.39c1,2.84,2.52,5.61,3,8.54,2.24,14.06,4.16,28.15,6.28,42.22,1.82,12,0,14-12.46,12.93C380.22,582.28,377.84,581.86,373.27,581.24Z" transform="translate(0)"/><path class="cls-1" d="M243.75,370.76c0-10.78-.18-20.83.16-30.89.07-1.89,2.37-5.31,3.38-5.31,4.3.41,9.21.85,12.57,3.18,6.19,4.32,7.19,17.62,3.06,26.39C259.21,372.07,252.65,372.5,243.75,370.76Z" transform="translate(0)"/><path class="cls-1" d="M120.86,358.11c0-4.54-.11-9.09,0-13.62.28-8.59,4.49-11.06,12.08-7.12s9.57,10.5,9.53,18.38c0,8.5.17,17-8.46,22.14-8.23,4.9-13,2.3-13.16-7.21C120.78,366.48,120.86,362.29,120.86,358.11Z" transform="translate(0)"/><path class="cls-2" d="M783.14,315.37v19.84c-10-1.21-11.65,3-11.37,11.66.78,24,.49,48.12-.2,72.15-.6,20.54-20.93,35-44.55,32.67-30-3-40.36-14-40.68-43.71-.24-22.5.08-45,.12-67.5a34.36,34.36,0,0,0-.57-4.28L674.59,335V315.29c17.06,0,32.78-.18,48.49.21,2.39,0,6.48,2.66,6.71,4.47a53,53,0,0,1-.86,15.44c-.49,2.81-3.62,5.31-3.69,8.07-.54,22.83-.65,45.65-.86,68.47a48.15,48.15,0,0,0,.25,6.47c.86,7.19,4,12.94,12.4,12,7.27-.86,10.07-5.86,10-13.28-.31-24.68,0-49.37-.28-74.06,0-2.79-2.82-5.47-3.42-8.38-1-5-2.24-10.19-1.43-15,.3-1.87,5.8-4,9-4.12C761.3,315,771.7,315.37,783.14,315.37Z" transform="translate(0)"/><path class="cls-2" d="M800,155.7c18.82,33,36.28,64.38,33.45,102.41a105.27,105.27,0,0,1-2.55,17.57c-2.75,11-12.58,15.75-22.75,10.92-2.15-1-3.84-4.48-4.39-7.1-1.32-6.37-1.8-12.94-5-19.54-.3,5.19-1,10.4-.77,15.57.53,10.36-7.41,10.27-14,12s-10.32-1.27-12.67-7.52c-6.39-17-6-34.3-2.47-51.63C774.12,202.77,785.58,179.77,800,155.7Z" transform="translate(0)"/></svg>