<svg id="Layer_1" data-name="Layer 1" xmlns="http://www.w3.org/2000/svg" viewBox="0 0 623.63 965.22"><defs><style>.cls-1{fill:#fff;}</style></defs><path class="cls-1" d="M187.77,428V49.31c0-21.57,9.56-31.43,31.27-31.44q191.9-.09,383.77-.09a33.39,33.39,0,0,1,24.55,9.91Q713.46,110.46,799.82,193c7.79,7.43,11.37,16.2,11.53,26.65.11,6.57,0,13.13,0,19.7V797c0,5.14.09,10.29-.1,15.42-.54,15-11,26.11-26.08,26.36-26,.42-52,.11-77.95.21-5,0-6.75-2.78-9.47-6.68-10.75-15.44-.68-28.67,3.26-42.56,1.09-3.82,4.62-3.58,7.84-3.57,13.42,0,26.86-.42,40.25.12,7.75.31,9.87-2.73,9.75-10-.33-18.84-.1-37.69-.11-56.53l-.09-466.87c0-11.14-.12-11.31-11.61-11.32q-67.24,0-134.49,0c-22.8,0-32.42-9.46-32.45-32.06Q580,145.72,580,81.9c0-11.24,0-11.28-11.18-11.28q-158,0-316.09,0c-12.26,0-12.33.22-12.33,12.16q0,346.08,0,692.16c0,11.19.07,11.2,11.59,11.19,58.53,0,117.06.08,175.6-.26,8.91-.05,15,1.56,15.82,11.62a6.16,6.16,0,0,0,1.14,3.2c8.09,10.55,6.12,20.75.13,31.63-2.62,4.75-5.29,6.83-10.47,6.68-7.13-.21-14.28-.06-21.41-.06q-95.52,0-191,.06c-24.87,0-34-9.17-34-34.1Zm486.6-239c11.4,0,22.81,0,34.21-.05,2.13,0,5,1,6.07-1.71.83-2.2-1.62-3.41-3-4.73q-36.14-34.59-72.34-69.09c-1.36-1.3-2.42-3.83-4.71-2.93-2.66,1-1.81,3.91-1.81,6,0,21.67.13,43.34,0,65,0,5.5,1.85,7.69,7.42,7.56C651.56,188.8,663,189,674.37,189Z" transform="translate(-187.77 -17.78)"/><path class="cls-1" d="M510.68,547.87c11,2,22.95-4.18,34.47-13.21,20.1-15.74,32-15.87,52.1.17,11.87,9.46,24.3,14,39.43,12.84,8.4-.66,17-1,24.87,4.06A35.12,35.12,0,0,1,677.65,575c3.54,17,12.83,29,27.47,38.33,18,11.42,22.52,24.88,14.71,44.85-6.43,16.48-6.12,31.78.29,48.08,7.13,18.14,3.35,31.89-13,42.42C691,759.06,681.5,772.48,676.75,791c-4.62,18-16.17,25.83-35,24.74-18.41-1.06-33.87,3.77-48.14,15.6-14.78,12.25-29.77,12.53-44.41.26s-30.76-17-49.73-15.83c-18.21,1.09-29.77-8-34.26-25.78-4.39-17.45-13.13-30.71-28.83-40.43-17.53-10.85-21.5-24-14.11-43.47,6.06-16,6.51-31,.33-47.28-8.1-21.29-3.63-33.49,15.38-46.09,12.66-8.4,21.8-18.48,25.43-33.8C468.87,555.6,480.72,545.62,510.68,547.87Zm-52.41,134c-.18,62.79,49.77,112.6,113.19,112.88C633,795,684.28,744.22,684.38,682.93c.11-63.3-50.16-114.1-113.14-114.33C508.77,568.36,458.44,618.82,458.27,681.87Z" transform="translate(-187.77 -17.78)"/><path class="cls-1" d="M498.72,365.6q-83.54,0-167.07,0c-19.26,0-31.86-14.56-27.94-32.35,2.12-9.57,8.12-16.06,17.75-19,4.74-1.42,9.58-1.45,14.43-1.45q163.65,0,327.28,0c6.83,0,13.78-.29,19.91,3.61,10.25,6.51,15.19,18,12.38,28.66-3.23,12.35-12.4,19.75-25.39,20.41-2.85.15-5.71.09-8.57.09H498.72Z" transform="translate(-187.77 -17.78)"/><path class="cls-1" d="M500.3,442.69q84,0,167.91.05c19.24,0,31.33,14.81,26.9,32.83-2.54,10.35-9.5,16.76-20,18.81a68.3,68.3,0,0,1-12.8.84q-162.33.12-324.68.11c-9.38,0-18.91.27-26.37-7.32-8-8.15-10.35-17.5-6.63-28.24,3.83-11,12.4-16.13,23.46-17,7.37-.59,14.83-.08,22.26-.08Z" transform="translate(-187.77 -17.78)"/><path class="cls-1" d="M726,980.08c-10.23-3.87-21.42-8.08-32.59-12.36-10.12-3.87-20.26-7.68-30.28-11.78-5.21-2.14-9.72-1.9-14.45,1.4-10.29,7.17-20.75,14.1-31.24,21-7.94,5.19-11,3.77-12.15-5.66-4.49-38.79-8.78-77.61-13.39-116.39-.69-5.82,1.24-9,5.75-12.81,13.36-11.2,27.93-17.09,45.57-15,6.88.83,13.68-1,20-3.57,4.17-1.67,6.42-1.71,8.45,3.11,20,47.53,40.36,94.93,60.46,142.44C735.11,977.45,733.05,980.76,726,980.08Z" transform="translate(-187.77 -17.78)"/><path class="cls-1" d="M423.28,981.8c9.47-3.88,19.84-8.09,30.18-12.37,9.37-3.87,18.76-7.67,28-11.78,4.82-2.14,9-1.89,13.37,1.4,9.53,7.17,19.21,14.1,28.93,21,7.35,5.2,10.24,3.77,11.25-5.66,4.16-38.79,8.13-77.61,12.4-116.39.64-5.81-1.15-9-5.33-12.81-12.37-11.2-25.86-17.08-42.19-14.95-6.37.84-12.66-1-18.56-3.56-3.86-1.68-5.95-1.71-7.83,3.1-18.55,47.53-37.37,94.94-56,142.44C414.84,979.16,416.74,982.48,423.28,981.8Z" transform="translate(-187.77 -17.78)"/><path class="cls-1" d="M382.37,572.27c17.1,0,34.19.11,51.28-.06,6.46-.06,8.36,1.88,5.06,8-2.65,4.91-5.87,9.14-10.89,11.62-11.75,5.79-20.07,15-25.57,26.58-2.51,5.29-5.9,6.7-11.34,6.64-20.22-.23-40.45,0-60.68-.13-15.82-.13-26.82-10.76-27.12-25.81-.3-14.74,10.49-26.26,26.28-26.75,17.65-.54,35.32-.12,53-.12Z" transform="translate(-187.77 -17.78)"/><path class="cls-1" d="M498.49,671c17.85,1.57,33.33,11.8,46.35,26.78,8.76,10.07,8.69,9.73,16.73-1.1,16.64-22.4,35.93-42.07,60.32-56.14a90.29,90.29,0,0,1,13.24-5.92c2.2-.84,5.26-2.55,6.84.52,1.26,2.44-1.44,4-3,5.53a338,338,0,0,0-35.74,41.41c-12.94,17.48-23.47,36.42-34,55.35a40.75,40.75,0,0,1-5.26,7.74c-5.64,6.13-12.43,6-17.39-.67a217.17,217.17,0,0,1-13.22-19.94C523.07,707,510,692.24,493.12,680.84a32.87,32.87,0,0,1-3.4-2.6c-1.65-1.46-4.25-2.76-3.19-5.41s3.92-1.6,6.07-1.84C493.73,670.86,494.88,671,498.49,671Z" transform="translate(-187.77 -17.78)"/></svg>