<svg id="Layer_1" data-name="Layer 1" xmlns="http://www.w3.org/2000/svg" viewBox="0 0 1000 1000"><defs><style>.cls-1{fill:#fff;}</style></defs><path class="cls-1" d="M995.25,195.34c5.36,9.42,4.28,19.24,4.28,29,0,197.92-.31,395.84.47,593.76.08,21.51-20.36,36-54.63,35-35.63-1-71.39-.26-107.09-.13-10.29,0-15-2.21-21.37-8.65-16.23-16.44,1.89-28.78,6.89-42.67,1.41-3.93,7.41-2.54,11.66-2.56,22-.1,43.95-.38,65.89,0,11.33.21,15.6-2.44,15.43-9.74-.44-18.37-.14-36.74-.14-55.11q0-245.78.2-491.54c0-8.3-5.07-9.94-16.22-9.91q-109.85.31-219.7.18c-18.88,0-35.87-2.46-46.25-14.32-4.33-5-4.41-10.23-4.44-15.47-.26-45-.28-90.06-.31-135.09,0-12.31.1-12.21-19.21-12.22q-118.77-.07-237.54-.24c-92.91,0-185.82.16-278.72-.06-8.93,0-11.34,2-11.23,7.08.2,8.58.1,17.18.1,25.77V785.31c0,13.75,0,13.7,21,13.68q140.75-.18,281.48-.33c11.24,0,22.27-.39,22.61,10,.07,2.2,1.71,4.83,4,6.47,15.61,11.27,4.58,21.79-1.86,32.38-3.59,5.9-11.85,5.41-19.72,5.41q-112.61-.09-225.2-.06c-38.9,0-77.81.07-116.71,0-30.83,0-48.64-11.89-48.63-32Q.35,430.65,0,40.44C0,16.88,9.76,3.1,48.36.42L52,.39A26.59,26.59,0,0,0,66.5.41c5.43.3,10.87.87,16.3.87q280,.09,560.09,0c6.72,0,13.75,1,20.17-1.31,17.57,1.85,33.74,5.22,46.13,14.44,5.76,4.29,11.86,8.89,20.95,10.73l-.21-.14c12.12,11.22,27.59,20.24,44.42,28.37l-.15-.09c12.9,10.66,28,19.89,44.34,28.27h0c12.57,10.31,28.33,18.47,43.66,26.91l-.06-.12,132,83.67ZM780.11,178.66v-.12c18.72,0,37.45,0,56.17,0,3.39,0,8.08,1.33,9.75-1.55s-3.52-3.95-5.8-5.38q-58-36.31-116.58-72.26c-2.12-1.31-3.61-4-7.47-3.17-4,.86-2.58,3.5-2.58,5.38-.08,23.66.24,47.32-.14,71-.09,5.37,3,6.4,10.46,6.28C742.64,178.46,761.37,178.66,780.11,178.66Z" transform="translate(0)"/><path class="cls-1" d="M562.66,977.39c-3.44,4.46-1.75,9.28-2.34,13.94-1.12,8.76-7.38,11-18.8,6.23-15.94-6.63-32.4-12.89-47.1-20.54-10.89-5.66-20.71-5-32-2.13q-46,11.82-92,23.42c-4.19,1.05-9.7,2.14-12.8-.42-4.08-3.38-1.24-7.61.92-11,9.5-14.86,19.81-29.5,29.51-44.3,21.12-32.24,42.32-64.47,62.85-96.87,4.37-6.9,9.31-10.53,20.64-6.51,12,4.25,24.91,3.81,37.5,3.06,20.84-1.25,37,4.14,54,11.31,17.37,7.32,21.85,14.65,15.9,27.41-4.23,9.09-2.82,19.29-3.93,29-.29,1.17-.59,2.35-.88,3.52-2.46,16.61-8.92,33-8,49.8l-.36,3.08c-1.45,2.37-2.91,4.73-1.74,7.35C563.51,975,563.09,976.18,562.66,977.39Z" transform="translate(0)"/><path class="cls-1" d="M648.25,878c-3.85-12.1,5.29-18.93,20.48-25.33,15.41-6.5,30.12-11.39,49.08-10.36,15.91.86,32,.61,47-3.82,5.86-1.72,7.87-.81,10.45,3.36,12.22,19.77,25.46,39.27,38.46,58.83,1,1.57,3,2.88,4.57,4.31-.32.55-.15,1,.52,1.45,0,.88-.3,1.88.2,2.64q26.12,39.46,52.43,78.88c2.27,3.38,4.58,7.24.63,9.92s-10.22,1.24-15.4-.07c-31.12-7.86-62.34-15.56-93.31-23.67-10.31-2.7-18.4-1.75-27.35,2.46-15.64,7.37-32.12,14-48.35,20.84-9.76,4.1-16.25,2.64-17.37-3.86-3.94-22.87-7.75-45.75-11.58-68.63-.69-4.13-1.52-8.23-4.68-11.94-.08-1-.17-2-.25-3-.11-9.83.89-19.73-5.23-29.1C648.47,879.92,648.36,879,648.25,878Z" transform="translate(0)"/><path class="cls-1" d="M515.56,550.94c19.79,2.31,38.83-3.65,57.12-13.16,29.86-15.54,50.53-17.61,82.61-.51,19.92,10.61,40.94,15.22,66.38,13.8,11.46-.64,23.21-1.21,34.56,3.09,15.58,5.9,25.41,14.15,28.94,25.23,5.1,16,16.48,28.75,38.63,37.34C857,629.62,866.69,643,850.55,669.61c-10.11,16.68-5.68,31.5,3.06,46.86,8.27,14.56,5.64,31.88-15.91,40-31.82,12-47.74,29.67-57.49,51.57-5.86,13.13-24.46,20.09-45.74,20.56-16.74.36-33.57-1.67-50.19,2.39-11.75,2.88-21.51,7.6-30.53,12.56a81.14,81.14,0,0,1-78.82-.53c-16.84-9.55-36-16-60.29-14.74-51.77,2.66-62.46-8.79-74.18-35.3C435.18,781,426.14,771.69,410,765.05c-37.46-15.46-47.52-25.3-30.28-56.69,8.19-14.91,5-28.31-2.74-42.06-11.75-20.85-4.22-36.46,25.23-48.1,21.62-8.54,33.55-20.76,41.62-36.15C458.34,554.5,467.67,551,515.56,550.94Zm100.3,256.19c97.7,1.47,180-52.58,180.75-115.69.8-67.23-82.94-118.47-180.1-119.36-98.8-.92-184.22,53.37-183.5,118.8C433.7,755,517.12,809.15,615.86,807.13Z" transform="translate(0)"/><path class="cls-1" d="M500.68,361.92q-133.83,0-267.65.05c-28,0-51.8-13-46.49-33.5,2.11-8.13,15.59-18.13,28.16-19.35,8.56-.83,17.28-1.46,25.92-1.47q260.1-.11,520.2,0c17.13,0,34,.49,45.25,10.73,9.44,8.6,10.8,18,4.27,27.5-7.7,11.25-22.84,15.82-40.64,15.95-47.58.35-95.16.12-142.75.12Z" transform="translate(0)"/><path class="cls-1" d="M502.71,442.17q133.17,0,266.33,0c30.79,0,47.71,12.74,44.13,32.48-1.54,8.52-14.72,18-27.68,19.59a244.56,244.56,0,0,1-29.91,2q-245.73-.12-491.47,0c-15.94,0-31.82,1-47.76-1.63-17.85-2.93-29.59-11.73-30.21-24.54-.66-13.38,10.28-22.6,28.68-26.37,15.47-3.16,30.84-1.52,46.28-1.53q120.81-.07,241.61,0Z" transform="translate(0)"/><path class="cls-1" d="M311.41,576.24c27.86,0,55.72,0,83.58,0,9,0,12.73,1,7.27,7.49-4.25,5.07-8.54,9.72-16.62,12.1-20,5.88-33.17,16.12-42.34,28.37-3.84,5.14-8.61,6-15.82,6-32-.09-63.94-.21-95.91-.07-28.11.12-44-9-45.43-25.27-1.51-16.71,18.43-28.16,44.42-28.59,26.93-.45,53.9-.1,80.85-.1Z" transform="translate(0)"/><path class="cls-1" d="M495.9,678.51c21.61,1.75,41.69,7.28,58.75,16.83a153.41,153.41,0,0,1,24.1,16.46c6.82,5.79,9.66,4,15-.88,27.46-25.16,59.84-47.17,101-63.17,7.67-3,16.25-5,24.52-7.31,3-.83,6.94-1.31,9.12.26,3.2,2.31-1.67,4-3.28,4.93-28.84,17.36-53,37.26-74.49,58.44-14.53,14.32-27.27,29.41-40.31,44.34-12.59,14.42-23.68,15.44-38.74,2.38-9.9-8.58-18.42-17.84-27.34-26.89-14-14.24-32.54-25.51-53.88-35.1-4.55-2-12.89-4.28-11.24-7.91C481,676.73,489.47,679.74,495.9,678.51Z" transform="translate(0)"/></svg>