<svg id="Layer_1" data-name="Layer 1" xmlns="http://www.w3.org/2000/svg" viewBox="0 0 1000 1000"><defs><style>.cls-1{fill:#fff;}</style></defs><path d="M1000,429.8V1000H489.19c27.49-24.13,50-55.77,60.84-103.5,5.52-24.32-1.47-49.83-15.94-64.68-14-14.42-26.89-11.57-38.37,6.83s-23.71,36.42-34,56.57c-25.15,49.09-21.41,76,13.22,104.78H0V0H1000V418.61c-5.51-18.43-10.63-37.19-16.6-55.26Q935.9,219.68,888,76.28c-27.6-83.16-31.93-85.14-84.67-37.64-25.91,23.33-28.84,37.14-15.1,79Q841.66,280,895.72,441.88c7.06,21.08,16.16,40.48,24.53,61.16,12.12-8,23.22-12.85,32.66-22C969.15,465.36,984.36,447,1000,429.8ZM760.79,116.19C723.44,148,691.33,132,660.77,95.32c-10.32-12.37-22-22.18-33.52-31.84-41.2-34.57-81.17-34.82-120.91,8-59.29,63.83-119.6,125.34-178.9,189.15-8.77,9.43-16.09,24.66-21.06,39.66-7.24,21.84-3.15,44.1,6.81,62.18,9.53,17.32,22.12,20.95,35.75,12.7,12.15-7.35,24.56-14,36.16-23.19C422.25,322.65,459,292.21,496,262.48c31.41-25.23,34.54-24.63,58,15.12,46.06,78,91.81,156.39,137.78,234.5,30.95,52.59,62,105,95.73,161.9,27.53-45,53.92-87.47,79.84-130.65,19-31.62,21-51.85,8.1-90.76-24.13-72.63-49-144.67-73.61-216.88C788.52,196.48,775,157.4,760.79,116.19Zm-572-58.37c-4.73-9.07-9.37-22.92-16.67-30.62-8.1-8.55-18.49-12.11-28.1-16.76C112-5.06,104.46.17,92.68,48.62Q52.17,215.21,12.43,382.28C-4.43,453.17-3,457.28,42.61,486.62c32.36,20.81,39.78,16,54.21-35.22,1-3.4,1.91-6.81,2.74-10.28q39-163,77.95-326C181.42,98.69,184.18,81.56,188.83,57.82ZM458.57,80.64c3.87-5.3,14.13-12.87,14.67-21.84.56-9.44-6.87-24.91-13.2-29.28-8.62-6-20.45-8.7-29.25-4.44-34.4,16.64-68.91,33.78-101.87,56.18-25.63,17.43-48.13,22.23-71.82-4.92-27.84-31.92-41-25.64-53.31,24.66-27.43,111.91-54.24,224.19-81.73,336.07-7.43,30.23-7.72,56.53,7.63,82.11,13.38,22.32,24.18,48.38,37,71.55,6.93,12.49,15.15,23.89,24,32.81,4.57,4.59,11.82,2.67,17.85,3.69.15-9.72,1.81-20.18,0-29-2.06-10.28-6.45-19.95-11-28.35-10.36-19.18-20.94-38.18-32.32-55.86-12.95-20.12-16.45-44.18-10.5-69.23C178.4,345.55,203.16,247,227.1,147.88c5.29-21.87,12.61-25.64,25.66-14.54,26.46,22.51,53.67,20.47,80.6,1.39a384.07,384.07,0,0,0,33.47-26.09C393.82,84.64,421.66,67.8,458.57,80.64ZM801,689.12c-10.93,16.16-19.94,29.29-28.82,42.65-18.71,28.13-28,28.61-46.47-.6-14.23-22.46-27.31-46.71-41.25-69.63-16.38-26.92-32.63-54.15-50.1-79.27-4.72-6.79-13.64-6.4-20.63-9.31-.83,13-2.9,26.33-2,39.08.51,7.07,5.81,13.51,9.27,19.81C642,670,663.48,707.36,683.75,746.33c14.26,27.4,13.6,59.4.4,78-13.56,19.12-29.07,15.53-46.31-13.87-19.7-33.58-38-69.17-57.46-103.09-7.44-13-15.47-26.43-25-34.77-12.06-10.56-20.89.35-16.82,21.12a241.41,241.41,0,0,0,18.47,56c12.38,26.09,27.48,49,40.34,74.58,19.93,39.68,14.17,71.49-14.8,93.76-10.72,8.23-20.14,20.58-31.87,32.86,40.5,27.23,65.74,12.9,87.44-43.56,3-7.87,10.14-18.43,14.44-17.49,28.7,6.26,48-13.42,62.78-49.29,10-24.28,24.72-36.42,42.69-40.93C797,789.88,811.65,754.55,801,689.12ZM464,697.41c-2.67,1.06-9.11.67-12.66,5.5C419.62,746,387.54,788.64,357.59,834.6c-11.18,17.16-4.34,46.41,12,70.7,13.88,20.63,28.79,25.47,41.32,8.14,28.88-40,56.95-81.39,84.48-123.61,10.15-15.55,11.49-36.63,4.69-56.86C493.06,712.15,482.8,697.7,464,697.41Zm-43-13c-.47-38.34-27.34-69.88-46.69-56.7-36.18,24.63-65.82,63-83.48,119.92-5.5,17.74,2.21,56.31,13.27,68.16,11.31,12.11,24.59,18.22,36.13,2q36.32-51.16,71-105.24C416.64,704,419,690.49,421,684.45Zm-165.76-70.1c-23.81.15-47.22,37.79-47.58,76.46-.31,34.09,14.06,60.64,33,61,23.32.48,51.35-42,51.91-78.68C293,642.85,274.85,614.23,255.21,614.35Z"/><path class="cls-1" d="M1000,429.8c-15.64,17.23-30.85,35.56-47.09,51.27-9.44,9.12-20.54,14-32.66,22-8.37-20.68-17.47-40.08-24.53-61.16Q841.53,280.12,788.27,117.59C774.53,75.78,777.46,62,803.37,38.64,856.11-8.86,860.44-6.88,888,76.28q47.64,143.57,95.36,287.07c6,18.07,11.09,36.83,16.6,55.26Z"/><path class="cls-1" d="M474.91,1000c-34.63-28.79-38.37-55.69-13.22-104.78,10.32-20.15,22.46-38,34-56.57s24.33-21.25,38.37-6.83c14.47,14.85,21.46,40.36,15.94,64.68-10.84,47.73-33.35,79.37-60.84,103.5Z"/><path class="cls-1" d="M760.79,116.19C775,157.4,788.52,196.48,801.9,235.71c24.63,72.21,49.48,144.25,73.61,216.88,12.92,38.91,10.88,59.14-8.1,90.76C841.49,586.53,815.1,629,787.57,674c-33.68-56.94-64.78-109.31-95.73-161.9-46-78.11-91.72-156.52-137.78-234.5-23.48-39.75-26.61-40.35-58-15.12C459,292.21,422.25,322.65,385.1,352c-11.6,9.15-24,15.84-36.16,23.19-13.63,8.25-26.22,4.62-35.75-12.7-10-18.08-14.05-40.34-6.81-62.18,5-15,12.29-30.23,21.06-39.66,59.3-63.81,119.61-125.32,178.9-189.15,39.74-42.79,79.71-42.54,120.91-8,11.52,9.66,23.2,19.47,33.52,31.84C691.33,132,723.44,148,760.79,116.19Z"/><path class="cls-1" d="M188.83,57.82c-4.65,23.74-7.41,40.87-11.32,57.32q-38.76,163.11-77.95,326c-.83,3.47-1.78,6.88-2.74,10.28-14.43,51.21-21.85,56-54.21,35.22-45.6-29.34-47-33.45-30.18-104.34Q52.17,215.23,92.68,48.62C104.46.17,112-5.06,144.06,10.44c9.61,4.65,20,8.21,28.1,16.76C179.46,34.9,184.1,48.75,188.83,57.82Z"/><path class="cls-1" d="M458.57,80.64c-36.91-12.84-64.75,4-91.74,28a384.07,384.07,0,0,1-33.47,26.09c-26.93,19.08-54.14,21.12-80.6-1.39-13-11.1-20.37-7.33-25.66,14.54-23.94,99.07-48.7,197.67-72.28,297-5.95,25.05-2.45,49.11,10.5,69.23,11.38,17.68,22,36.68,32.32,55.86,4.54,8.4,8.93,18.07,11,28.35,1.77,8.78.11,19.24,0,29-6-1-13.28.9-17.85-3.69-8.86-8.92-17.08-20.32-24-32.81-12.86-23.17-23.66-49.23-37-71.55-15.35-25.58-15.06-51.88-7.63-82.11,27.49-111.88,54.3-224.16,81.73-336.07,12.33-50.3,25.47-56.58,53.31-24.66,23.69,27.15,46.19,22.35,71.82,4.92,33-22.4,67.47-39.54,101.87-56.18,8.8-4.26,20.63-1.52,29.25,4.44,6.33,4.37,13.76,19.84,13.2,29.28C472.7,67.77,462.44,75.34,458.57,80.64Z"/><path class="cls-1" d="M801,689.12c10.63,65.43-4,100.76-43,110.55-18,4.51-32.71,16.65-42.69,40.93-14.75,35.87-34.08,55.55-62.78,49.29-4.3-.94-11.42,9.62-14.44,17.49-21.7,56.46-46.94,70.79-87.44,43.56,11.73-12.28,21.15-24.63,31.87-32.86,29-22.27,34.73-54.08,14.8-93.76-12.86-25.6-28-48.49-40.34-74.58a241.41,241.41,0,0,1-18.47-56C534.5,673,543.33,662,555.39,672.6c9.52,8.34,17.55,21.82,25,34.77,19.47,33.92,37.76,69.51,57.46,103.09,17.24,29.4,32.75,33,46.31,13.87,13.2-18.6,13.86-50.6-.4-78C663.48,707.36,642,670,621,631.85c-3.46-6.3-8.76-12.74-9.27-19.81-.91-12.75,1.16-26,2-39.08,7,2.91,15.91,2.52,20.63,9.31,17.47,25.12,33.72,52.35,50.1,79.27,13.94,22.92,27,47.17,41.25,69.63,18.51,29.21,27.76,28.73,46.47.6C781.08,718.41,790.09,705.28,801,689.12Z"/><path class="cls-1" d="M464,697.41c18.84.29,29.1,14.74,36.1,35.56,6.8,20.23,5.46,41.31-4.69,56.86-27.53,42.22-55.6,83.66-84.48,123.61-12.53,17.33-27.44,12.49-41.32-8.14-16.32-24.29-23.16-53.54-12-70.7,30-46,62-88.56,93.71-131.69C454.85,698.08,461.29,698.47,464,697.41Z"/><path class="cls-1" d="M421,684.45c-2,6-4.33,19.57-9.81,28.11q-34.64,54-71,105.24c-11.54,16.25-24.82,10.14-36.13-2C293,804,285.3,765.41,290.8,747.67c17.66-56.92,47.3-95.29,83.48-119.92C393.63,614.57,420.5,646.11,421,684.45Z"/><path class="cls-1" d="M255.21,614.35c19.64-.12,37.82,28.5,37.36,58.82-.56,36.68-28.59,79.16-51.91,78.68-19-.4-33.34-27-33-61C208,652.14,231.4,614.5,255.21,614.35Z"/></svg>